<?xml version="1.0" standalone="no"?>
<!DOCTYPE svg PUBLIC "-//W3C//DTD SVG 20010904//EN"
 "http://www.w3.org/TR/2001/REC-SVG-20010904/DTD/svg10.dtd">
<svg version="1.0" xmlns="http://www.w3.org/2000/svg"
 width="588.000000pt" height="588.000000pt" viewBox="0 0 588.000000 588.000000"
 preserveAspectRatio="xMidYMid meet">
<metadata>
Created by potrace 1.14, written by Peter Selinger 2001-2017
</metadata>
<g transform="translate(0.000000,588.000000) scale(0.100000,-0.100000)"
fill="#000000" stroke="none">
<path d="M0 2940 l0 -2940 2940 0 2940 0 0 2940 0 2940 -2940 0 -2940 0 0
-2940z m2530 1413 c183 -42 291 -96 381 -190 115 -120 156 -269 125 -451 -34
-196 -154 -355 -344 -455 l-65 -35 29 -17 c144 -88 206 -156 255 -280 20 -52
23 -77 24 -190 0 -116 -3 -139 -28 -212 -91 -265 -352 -448 -728 -507 -57 -9
-115 -19 -129 -21 -55 -10 -1527 -18 -1533 -8 -3 5 25 164 64 354 38 189 76
378 84 419 8 41 62 309 120 595 58 286 112 554 120 595 8 41 30 153 50 248 19
95 35 175 35 178 0 3 325 3 723 2 697 -3 725 -4 817 -25z m2995 8 c-3 -10 -12
-54 -20 -97 -12 -67 -42 -212 -76 -369 -4 -22 -8 -43 -9 -47 0 -5 -166 -8
-368 -8 l-368 0 -68 -337 c-37 -186 -121 -601 -185 -923 l-118 -585 -342 -3
c-187 -1 -341 -1 -341 2 0 6 14 75 140 696 67 327 139 683 160 790 22 107 46
227 55 265 8 39 15 76 15 83 0 9 -80 12 -366 12 l-366 0 4 33 c3 17 26 139 53
270 l49 237 1079 0 c1045 0 1078 -1 1072 -19z"/>
<path d="M1566 3878 c-7 -23 -86 -424 -86 -437 0 -10 63 -12 308 -9 267 4 313
7 357 23 123 45 185 125 185 237 0 88 -33 138 -115 175 -35 15 -79 18 -343 21
-244 3 -303 1 -306 -10z"/>
<path d="M1366 2888 c-30 -141 -76 -378 -76 -394 0 -13 41 -15 363 -12 324 3
367 6 412 22 119 45 180 116 191 223 12 113 -32 179 -144 213 -58 18 -94 20
-397 20 l-334 0 -15 -72z"/>
</g>
</svg>
