<?xml version="1.0" standalone="no"?>
<!DOCTYPE svg PUBLIC "-//W3C//DTD SVG 20010904//EN"
 "http://www.w3.org/TR/2001/REC-SVG-20010904/DTD/svg10.dtd">
<svg version="1.0" xmlns="http://www.w3.org/2000/svg"
 width="875.000000pt" height="875.000000pt" viewBox="0 0 875.000000 875.000000"
 preserveAspectRatio="xMidYMid meet">
<metadata>
Created by potrace 1.14, written by Peter Selinger 2001-2017
</metadata>
<g transform="translate(0.000000,875.000000) scale(0.100000,-0.100000)"
fill="#000000" stroke="none">
<path d="M3910 8694 c-52 -31 -129 -74 -170 -96 -41 -23 -79 -44 -85 -48 -5
-4 -35 -21 -65 -38 -30 -16 -89 -49 -130 -72 -41 -24 -93 -53 -115 -65 -22
-12 -56 -31 -75 -42 -19 -11 -96 -54 -170 -95 -74 -42 -159 -90 -188 -107 -29
-17 -54 -31 -56 -31 -2 0 -33 -16 -68 -36 -81 -47 -221 -125 -323 -182 -44
-24 -98 -54 -120 -67 -344 -192 -423 -239 -442 -261 l-23 -25 0 -1217 c0 -669
3 -1227 6 -1239 7 -27 62 -63 94 -63 18 0 573 302 793 432 26 15 50 28 53 28
2 0 21 10 42 23 20 13 68 40 105 61 37 20 82 45 100 55 80 44 174 97 192 108
11 6 34 19 50 27 17 9 48 26 70 39 22 13 65 37 95 54 30 16 71 39 90 50 19 11
66 37 105 59 38 21 78 44 87 49 10 6 51 27 90 49 40 21 80 44 88 51 8 6 41 25
73 41 32 16 73 41 90 55 l32 27 1 1228 c1 830 -2 1235 -9 1249 -18 35 -35 45
-79 50 -38 4 -54 -2 -138 -51z"/>
<path d="M4006 5664 c-21 -8 -44 -18 -50 -23 -6 -5 -36 -22 -66 -39 -84 -45
-149 -81 -213 -118 -32 -19 -60 -34 -61 -34 -2 0 -54 -29 -116 -65 -62 -36
-114 -65 -115 -65 -2 0 -43 -23 -92 -51 -48 -28 -116 -67 -150 -85 -33 -18
-101 -56 -149 -84 -48 -27 -88 -50 -90 -50 -2 0 -66 -35 -141 -78 -142 -81
-406 -229 -618 -346 -66 -37 -127 -71 -135 -76 -8 -5 -36 -21 -61 -36 -26 -14
-52 -37 -58 -50 -16 -36 -16 -2443 0 -2478 15 -33 70 -59 106 -50 15 4 89 42
163 84 74 42 230 129 345 194 116 64 217 121 225 126 8 5 51 29 95 53 44 24
98 54 120 67 22 12 141 79 265 148 124 69 290 162 370 207 80 45 177 99 215
120 39 21 75 41 80 45 6 4 42 25 80 45 127 69 172 101 177 128 10 53 7 2432
-4 2459 -10 26 -35 48 -68 60 -8 3 -33 -1 -54 -8z"/>
<path d="M4643 5646 l-28 -24 -3 -1232 c-1 -838 1 -1237 8 -1250 9 -17 111
-90 125 -90 3 0 67 -35 142 -78 76 -43 145 -81 153 -85 8 -4 29 -15 45 -25 17
-10 95 -55 175 -99 183 -101 181 -101 565 -316 176 -99 343 -192 370 -207 28
-15 160 -89 295 -165 273 -154 298 -162 348 -112 l27 27 0 1234 c0 1187 -1
1235 -19 1254 -10 12 -93 63 -184 114 -92 51 -175 98 -184 103 -9 6 -35 20
-58 33 -22 12 -118 66 -213 119 -246 137 -550 308 -707 395 -74 42 -151 85
-170 96 -19 11 -55 32 -80 45 -25 14 -70 39 -100 56 -30 18 -63 35 -72 38 -10
3 -18 9 -18 14 0 5 -4 9 -9 9 -5 0 -77 38 -160 85 -167 94 -200 102 -248 61z"/>
<path d="M4360 2770 c-14 -4 -41 -16 -60 -27 -62 -35 -290 -163 -450 -253
-210 -117 -236 -132 -305 -170 -33 -18 -64 -36 -70 -40 -5 -4 -39 -23 -75 -42
-36 -20 -119 -66 -185 -103 -161 -91 -191 -108 -255 -144 -30 -17 -100 -56
-155 -86 -55 -31 -107 -60 -115 -65 -15 -9 -141 -79 -240 -133 -30 -17 -68
-39 -85 -49 -16 -10 -36 -21 -43 -24 -87 -42 -302 -171 -321 -191 -18 -21 -22
-34 -18 -65 3 -21 11 -45 17 -53 7 -8 53 -36 103 -64 51 -27 152 -83 225 -125
74 -42 136 -76 138 -76 2 0 21 -11 42 -23 20 -13 66 -40 102 -59 36 -20 114
-63 174 -97 60 -34 112 -61 116 -61 5 0 10 -3 12 -7 2 -5 19 -16 38 -27 19
-10 132 -72 250 -139 118 -66 235 -131 260 -145 25 -14 117 -66 205 -115 170
-96 205 -115 300 -167 33 -18 76 -42 95 -53 181 -104 302 -167 320 -167 25 0
83 28 230 112 63 35 135 76 160 90 25 14 169 95 320 180 151 85 302 170 335
188 33 18 76 42 95 53 19 11 71 40 115 65 44 24 109 61 145 82 36 20 88 50
115 65 28 15 147 82 265 148 118 67 244 137 279 156 35 20 80 45 100 56 20 12
61 35 91 51 120 67 139 82 146 120 9 50 -7 77 -71 118 -30 20 -58 36 -61 36
-3 0 -36 17 -72 39 -37 21 -85 49 -107 61 -107 59 -304 170 -335 189 -19 11
-46 26 -60 33 -14 7 -41 22 -60 33 -19 12 -60 35 -90 52 -128 70 -291 162
-310 174 -8 5 -22 12 -30 16 -8 4 -52 29 -98 55 -46 26 -85 48 -88 48 -2 0
-33 18 -69 40 -36 22 -67 40 -69 40 -3 0 -53 28 -113 62 -59 33 -128 72 -153
86 -25 14 -79 44 -120 67 -41 24 -92 52 -113 64 -21 12 -70 39 -108 61 -39 22
-72 40 -74 40 -2 0 -36 19 -77 43 -84 50 -103 56 -138 47z"/>
</g>
</svg>
