<?xml version="1.0" standalone="no"?>
<!DOCTYPE svg PUBLIC "-//W3C//DTD SVG 20010904//EN"
 "http://www.w3.org/TR/2001/REC-SVG-20010904/DTD/svg10.dtd">
<svg version="1.0" xmlns="http://www.w3.org/2000/svg"
 width="500.000000pt" height="500.000000pt" viewBox="0 0 500.000000 500.000000"
 preserveAspectRatio="xMidYMid meet">
<metadata>
Created by potrace 1.14, written by Peter Selinger 2001-2017
</metadata>
<g transform="translate(0.000000,500.000000) scale(0.100000,-0.100000)"
fill="#000000" stroke="none">
<path d="M197 4985 c-81 -30 -146 -92 -176 -170 -20 -49 -20 -93 -20 -2320 l0
-2270 24 -50 c31 -64 87 -121 145 -148 l45 -22 2285 0 2285 0 48 24 c60 29
109 79 139 140 l23 46 0 2285 0 2285 -23 46 c-30 61 -79 111 -139 140 l-48 24
-2275 2 c-1923 1 -2281 -1 -2313 -12z"/>
</g>
</svg>
