<svg width="2924" height="1644" viewBox="0 0 2924 1644" fill="none" xmlns="http://www.w3.org/2000/svg">
<g clip-path="url(#clip0_304_311)">
<rect width="2923.9" height="1643.89" fill="#080037"/>
<path d="M1218.31 410.942L974.674 548.004L731.037 410.942L974.674 274.002L1218.31 410.942Z" stroke="#1EE6F6" stroke-opacity="0.05" stroke-miterlimit="10"/>
<path d="M1461.95 274.002L1218.31 410.942L974.675 274.002L1218.31 136.94L1461.95 274.002Z" fill="#0B0247" stroke="#1EE6F6" stroke-opacity="0.05" stroke-miterlimit="10"/>
<path d="M1705.59 136.94L1461.95 274.002L1218.31 136.94L1461.95 0L1705.59 136.94Z" stroke="#1EE6F6" stroke-opacity="0.05" stroke-miterlimit="10"/>
<path d="M1461.95 548.004L1218.31 684.944L974.675 548.004L1218.31 410.942L1461.95 548.004Z" stroke="#1EE6F6" stroke-opacity="0.05" stroke-miterlimit="10"/>
<path d="M1705.59 410.942L1461.95 548.004L1218.31 410.942L1461.95 274.002L1705.59 410.942Z" stroke="#1EE6F6" stroke-opacity="0.05" stroke-miterlimit="10"/>
<path d="M1949.35 274.002L1705.59 410.942L1461.95 274.002L1705.59 136.94L1949.35 274.002Z" stroke="#1EE6F6" stroke-opacity="0.05" stroke-miterlimit="10"/>
<path d="M1705.59 684.944L1461.95 821.884L1218.31 684.944L1461.95 548.004L1705.59 684.944Z" stroke="#1EE6F6" stroke-opacity="0.05" stroke-miterlimit="10"/>
<path d="M1949.35 548.004L1705.59 684.944L1461.95 548.004L1705.59 410.942L1949.35 548.004Z" fill="#0B0247" stroke="#1EE6F6" stroke-opacity="0.05" stroke-miterlimit="10"/>
<path d="M2192.99 410.942L1949.35 548.004L1705.59 410.942L1949.35 274.002L2192.99 410.942Z" stroke="#1EE6F6" stroke-opacity="0.05" stroke-miterlimit="10"/>
<path d="M1949.35 821.884L1705.59 958.946L1461.95 821.884L1705.59 684.944L1949.35 821.884Z" stroke="#1EE6F6" stroke-opacity="0.05" stroke-miterlimit="10"/>
<path d="M2192.99 684.944L1949.35 821.884L1705.59 684.944L1949.35 548.004L2192.99 684.944Z" stroke="#1EE6F6" stroke-opacity="0.05" stroke-miterlimit="10"/>
<path d="M2436.62 548.004L2192.99 684.944L1949.35 548.004L2192.99 410.942L2436.62 548.004Z" stroke="#1EE6F6" stroke-opacity="0.05" stroke-miterlimit="10"/>
<path d="M2192.99 958.946L1949.35 1095.89L1705.59 958.946L1949.35 821.884L2192.99 958.946Z" stroke="#1EE6F6" stroke-opacity="0.05" stroke-miterlimit="10"/>
<path d="M2436.62 821.884L2192.99 958.946L1949.35 821.884L2192.99 684.944L2436.62 821.884Z" fill="#0B0247" stroke="#1EE6F6" stroke-opacity="0.05" stroke-miterlimit="10"/>
<path d="M2680.26 684.944L2436.62 821.884L2192.99 684.944L2436.62 548.004L2680.26 684.944Z" stroke="#1EE6F6" stroke-opacity="0.05" stroke-miterlimit="10"/>
<path d="M2436.62 1095.89L2192.99 1232.95L1949.35 1095.89L2192.99 958.946L2436.62 1095.89Z" stroke="#1EE6F6" stroke-opacity="0.05" stroke-miterlimit="10"/>
<path d="M2680.26 958.946L2436.62 1095.89L2192.99 958.946L2436.62 821.884L2680.26 958.946Z" stroke="#1EE6F6" stroke-opacity="0.05" stroke-miterlimit="10"/>
<path d="M2923.9 821.884L2680.26 958.946L2436.62 821.884L2680.26 684.944L2923.9 821.884Z" stroke="#1EE6F6" stroke-opacity="0.05" stroke-miterlimit="10"/>
<path d="M487.275 821.884L243.637 958.946L0 821.884L243.637 684.944L487.275 821.884Z" fill="#0B0247" stroke="#1EE6F6" stroke-opacity="0.05" stroke-miterlimit="10"/>
<path d="M731.038 684.944L487.275 821.884L243.637 684.944L487.275 548.004L731.038 684.944Z" stroke="#1EE6F6" stroke-opacity="0.05" stroke-miterlimit="10"/>
<path d="M974.674 548.004L731.037 684.944L487.274 548.004L731.037 410.942L974.674 548.004Z" fill="#0B0247" stroke="#1EE6F6" stroke-opacity="0.05" stroke-miterlimit="10"/>
<path d="M731.038 958.946L487.275 1095.89L243.637 958.946L487.275 821.884L731.038 958.946Z" stroke="#1EE6F6" stroke-opacity="0.05" stroke-miterlimit="10"/>
<path d="M974.674 821.884L731.037 958.946L487.274 821.884L731.037 684.944L974.674 821.884Z" stroke="#1EE6F6" stroke-opacity="0.05" stroke-miterlimit="10"/>
<path d="M1218.31 684.944L974.674 821.884L731.037 684.944L974.674 548.004L1218.31 684.944Z" stroke="#1EE6F6" stroke-opacity="0.05" stroke-miterlimit="10"/>
<path d="M974.674 1095.89L731.037 1232.95L487.274 1095.89L731.037 958.946L974.674 1095.89Z" fill="#0B0247" stroke="#1EE6F6" stroke-opacity="0.05" stroke-miterlimit="10"/>
<path d="M1218.31 958.946L974.674 1095.89L731.037 958.946L974.674 821.884L1218.31 958.946Z" stroke="#1EE6F6" stroke-opacity="0.05" stroke-miterlimit="10"/>
<path d="M1461.95 821.884L1218.31 958.946L974.675 821.884L1218.31 684.944L1461.95 821.884Z" fill="#0B0247" stroke="#1EE6F6" stroke-opacity="0.05" stroke-miterlimit="10"/>
<path d="M1218.31 1232.95L974.674 1369.89L731.037 1232.95L974.674 1095.89L1218.31 1232.95Z" stroke="#1EE6F6" stroke-opacity="0.05" stroke-miterlimit="10"/>
<path d="M1461.95 1095.89L1218.31 1232.95L974.675 1095.89L1218.31 958.946L1461.95 1095.89Z" stroke="#1EE6F6" stroke-opacity="0.05" stroke-miterlimit="10"/>
<path d="M1705.59 958.946L1461.95 1095.89L1218.31 958.946L1461.95 821.884L1705.59 958.946Z" stroke="#1EE6F6" stroke-opacity="0.05" stroke-miterlimit="10"/>
<path d="M1461.95 1369.89L1218.31 1506.95L974.675 1369.89L1218.31 1232.95L1461.95 1369.89Z" fill="#0B0247" stroke="#1EE6F6" stroke-opacity="0.05" stroke-miterlimit="10"/>
<path d="M1705.59 1232.95L1461.95 1369.89L1218.31 1232.95L1461.95 1095.89L1705.59 1232.95Z" stroke="#1EE6F6" stroke-opacity="0.05" stroke-miterlimit="10"/>
<path d="M1949.35 1095.89L1705.59 1232.95L1461.95 1095.89L1705.59 958.946L1949.35 1095.89Z" fill="#0B0247" stroke="#1EE6F6" stroke-opacity="0.05" stroke-miterlimit="10"/>
<path d="M1705.59 1506.95L1461.95 1643.89L1218.31 1506.95L1461.95 1369.89L1705.59 1506.95Z" stroke="#1EE6F6" stroke-opacity="0.05" stroke-miterlimit="10"/>
<path d="M1949.35 1369.89L1705.59 1506.95L1461.95 1369.89L1705.59 1232.95L1949.35 1369.89Z" stroke="#1EE6F6" stroke-opacity="0.05" stroke-miterlimit="10"/>
<path d="M2192.99 1232.95L1949.35 1369.89L1705.59 1232.95L1949.35 1095.89L2192.99 1232.95Z" stroke="#1EE6F6" stroke-opacity="0.05" stroke-miterlimit="10"/>
<path d="M3411.35 -1.11634L3167.59 135.946L2923.95 -1.11634L3167.59 -138.056L3411.35 -1.11634Z" stroke="#1EE6F6" stroke-opacity="0.05" stroke-miterlimit="10"/>
<path d="M1949.27 -1.11634L1705.64 135.946L1462 -1.11634L1705.64 -138.056L1949.27 -1.11634Z" fill="#0B0247" stroke="#1EE6F6" stroke-opacity="0.05" stroke-miterlimit="10"/>
<path d="M2193.04 135.946L1949.27 272.886L1705.64 135.946L1949.27 -1.11633L2193.04 135.946Z" stroke="#1EE6F6" stroke-opacity="0.05" stroke-miterlimit="10"/>
<path d="M2436.67 -1.11634L2193.04 135.946L1949.27 -1.11634L2193.04 -138.056L2436.67 -1.11634Z" stroke="#1EE6F6" stroke-opacity="0.05" stroke-miterlimit="10"/>
<path d="M2436.67 272.886L2193.04 409.948L1949.27 272.886L2193.04 135.946L2436.67 272.886Z" fill="#0B0247" stroke="#1EE6F6" stroke-opacity="0.05" stroke-miterlimit="10"/>
<path d="M2680.31 135.946L2436.67 272.886L2193.04 135.946L2436.67 -1.11633L2680.31 135.946Z" stroke="#1EE6F6" stroke-opacity="0.05" stroke-miterlimit="10"/>
<path d="M2923.95 -1.11634L2680.31 135.946L2436.67 -1.11634L2680.31 -138.056L2923.95 -1.11634Z" fill="#0B0247" stroke="#1EE6F6" stroke-opacity="0.05" stroke-miterlimit="10"/>
<path d="M2680.31 409.948L2436.67 546.888L2193.04 409.948L2436.67 272.886L2680.31 409.948Z" stroke="#1EE6F6" stroke-opacity="0.05" stroke-miterlimit="10"/>
<path d="M2923.95 272.886L2680.31 409.948L2436.67 272.886L2680.31 135.946L2923.95 272.886Z" stroke="#1EE6F6" stroke-opacity="0.05" stroke-miterlimit="10"/>
<path d="M3167.59 135.946L2923.95 272.886L2680.31 135.946L2923.95 -1.11633L3167.59 135.946Z" stroke="#1EE6F6" stroke-opacity="0.05" stroke-miterlimit="10"/>
<path d="M2923.95 546.888L2680.31 683.95L2436.67 546.888L2680.31 409.948L2923.95 546.888Z" fill="#0B0247" stroke="#1EE6F6" stroke-opacity="0.05" stroke-miterlimit="10"/>
<path d="M3167.59 409.948L2923.95 546.888L2680.31 409.948L2923.95 272.886L3167.59 409.948Z" stroke="#1EE6F6" stroke-opacity="0.05" stroke-miterlimit="10"/>
<path d="M3411.35 272.886L3167.59 409.948L2923.95 272.886L3167.59 135.946L3411.35 272.886Z" fill="#0B0247" stroke="#1EE6F6" stroke-opacity="0.05" stroke-miterlimit="10"/>
<path d="M3167.59 683.95L2923.95 820.89L2680.31 683.95L2923.95 546.888L3167.59 683.95Z" stroke="#1EE6F6" stroke-opacity="0.05" stroke-miterlimit="10"/>
<path d="M3411.35 546.888L3167.59 683.95L2923.95 546.888L3167.59 409.948L3411.35 546.888Z" stroke="#1EE6F6" stroke-opacity="0.05" stroke-miterlimit="10"/>
<path d="M2680.31 1232.94L2436.67 1370L2193.04 1232.94L2436.67 1096L2680.31 1232.94Z" stroke="#1EE6F6" stroke-opacity="0.05" stroke-miterlimit="10"/>
<path d="M2923.95 1096L2680.31 1232.94L2436.67 1096L2680.31 958.94L2923.95 1096Z" fill="#0B0247" stroke="#1EE6F6" stroke-opacity="0.05" stroke-miterlimit="10"/>
<path d="M3167.59 958.94L2923.95 1096L2680.31 958.94L2923.95 822L3167.59 958.94Z" stroke="#1EE6F6" stroke-opacity="0.05" stroke-miterlimit="10"/>
<path d="M2923.95 1370L2680.31 1506.94L2436.67 1370L2680.31 1232.94L2923.95 1370Z" stroke="#1EE6F6" stroke-opacity="0.05" stroke-miterlimit="10"/>
<path d="M3167.59 1232.94L2923.95 1370L2680.31 1232.94L2923.95 1096L3167.59 1232.94Z" stroke="#1EE6F6" stroke-opacity="0.05" stroke-miterlimit="10"/>
<path d="M3411.35 1096L3167.59 1232.94L2923.95 1096L3167.59 958.94L3411.35 1096Z" stroke="#1EE6F6" stroke-opacity="0.05" stroke-miterlimit="10"/>
<path d="M3167.59 1506.94L2923.95 1643.88L2680.31 1506.94L2923.95 1370L3167.59 1506.94Z" stroke="#1EE6F6" stroke-opacity="0.05" stroke-miterlimit="10"/>
<path d="M3411.35 1370L3167.59 1506.94L2923.95 1370L3167.59 1232.94L3411.35 1370Z" fill="#0B0247" stroke="#1EE6F6" stroke-opacity="0.05" stroke-miterlimit="10"/>
<path d="M3411.35 1643.88L3167.59 1780.95L2923.95 1643.88L3167.59 1506.94L3411.35 1643.88Z" stroke="#1EE6F6" stroke-opacity="0.05" stroke-miterlimit="10"/>
<path d="M1949.27 1643.88L1705.64 1780.95L1462 1643.88L1705.64 1506.94L1949.27 1643.88Z" fill="#0B0247" stroke="#1EE6F6" stroke-opacity="0.05" stroke-miterlimit="10"/>
<path d="M2193.04 1506.94L1949.27 1643.88L1705.64 1506.94L1949.27 1370L2193.04 1506.94Z" stroke="#1EE6F6" stroke-opacity="0.05" stroke-miterlimit="10"/>
<path d="M2436.67 1370L2193.04 1506.94L1949.27 1370L2193.04 1232.94L2436.67 1370Z" fill="#0B0247" stroke="#1EE6F6" stroke-opacity="0.05" stroke-miterlimit="10"/>
<path d="M2193.04 1780.95L1949.27 1917.89L1705.64 1780.95L1949.27 1643.88L2193.04 1780.95Z" stroke="#1EE6F6" stroke-opacity="0.05" stroke-miterlimit="10"/>
<path d="M2436.67 1643.88L2193.04 1780.95L1949.27 1643.88L2193.04 1506.94L2436.67 1643.88Z" stroke="#1EE6F6" stroke-opacity="0.05" stroke-miterlimit="10"/>
<path d="M2680.31 1506.94L2436.67 1643.88L2193.04 1506.94L2436.67 1370L2680.31 1506.94Z" stroke="#1EE6F6" stroke-opacity="0.05" stroke-miterlimit="10"/>
<path d="M2680.31 1780.95L2436.67 1917.89L2193.04 1780.95L2436.67 1643.88L2680.31 1780.95Z" stroke="#1EE6F6" stroke-opacity="0.05" stroke-miterlimit="10"/>
<path d="M2923.95 1643.88L2680.31 1780.95L2436.67 1643.88L2680.31 1506.94L2923.95 1643.88Z" fill="#0B0247" stroke="#1EE6F6" stroke-opacity="0.05" stroke-miterlimit="10"/>
<path d="M3167.59 1780.95L2923.95 1917.89L2680.31 1780.95L2923.95 1643.88L3167.59 1780.95Z" stroke="#1EE6F6" stroke-opacity="0.05" stroke-miterlimit="10"/>
<path d="M-0.0503867 1096L-243.688 1232.94L-487.325 1096L-243.688 958.94L-0.0503867 1096Z" fill="#0B0247" stroke="#1EE6F6" stroke-opacity="0.05" stroke-miterlimit="10"/>
<path d="M243.586 958.94L-0.0513864 1096L-243.689 958.94L-0.0513864 822L243.586 958.94Z" stroke="#1EE6F6" stroke-opacity="0.05" stroke-miterlimit="10"/>
<path d="M-0.0503867 1370L-243.688 1506.94L-487.325 1370L-243.688 1232.94L-0.0503867 1370Z" stroke="#1EE6F6" stroke-opacity="0.05" stroke-miterlimit="10"/>
<path d="M243.586 1232.94L-0.0513864 1370L-243.689 1232.94L-0.0513864 1096L243.586 1232.94Z" stroke="#1EE6F6" stroke-opacity="0.05" stroke-miterlimit="10"/>
<path d="M487.349 1096L243.586 1232.94L-0.0512695 1096L243.586 958.94L487.349 1096Z" stroke="#1EE6F6" stroke-opacity="0.05" stroke-miterlimit="10"/>
<path d="M243.586 1506.94L-0.0513864 1643.88L-243.689 1506.94L-0.0513864 1370L243.586 1506.94Z" stroke="#1EE6F6" stroke-opacity="0.05" stroke-miterlimit="10"/>
<path d="M487.349 1370L243.586 1506.94L-0.0512695 1370L243.586 1232.94L487.349 1370Z" fill="#0B0247" stroke="#1EE6F6" stroke-opacity="0.05" stroke-miterlimit="10"/>
<path d="M730.986 1232.94L487.349 1370L243.586 1232.94L487.349 1096L730.986 1232.94Z" stroke="#1EE6F6" stroke-opacity="0.05" stroke-miterlimit="10"/>
<path d="M487.349 1643.88L243.586 1780.95L-0.0512695 1643.88L243.586 1506.94L487.349 1643.88Z" stroke="#1EE6F6" stroke-opacity="0.05" stroke-miterlimit="10"/>
<path d="M730.986 1506.94L487.349 1643.88L243.586 1506.94L487.349 1370L730.986 1506.94Z" stroke="#1EE6F6" stroke-opacity="0.05" stroke-miterlimit="10"/>
<path d="M974.623 1370L730.986 1506.94L487.349 1370L730.986 1232.94L974.623 1370Z" stroke="#1EE6F6" stroke-opacity="0.05" stroke-miterlimit="10"/>
<path d="M730.986 1780.95L487.349 1917.89L243.586 1780.95L487.349 1643.88L730.986 1780.95Z" stroke="#1EE6F6" stroke-opacity="0.05" stroke-miterlimit="10"/>
<path d="M974.623 1643.88L730.986 1780.95L487.349 1643.88L730.986 1506.94L974.623 1643.88Z" fill="#0B0247" stroke="#1EE6F6" stroke-opacity="0.05" stroke-miterlimit="10"/>
<path d="M1218.26 1506.94L974.623 1643.88L730.986 1506.94L974.623 1370L1218.26 1506.94Z" stroke="#1EE6F6" stroke-opacity="0.05" stroke-miterlimit="10"/>
<path d="M1218.26 1780.95L974.623 1917.89L730.986 1780.95L974.623 1643.88L1218.26 1780.95Z" stroke="#1EE6F6" stroke-opacity="0.05" stroke-miterlimit="10"/>
<path d="M1461.9 1643.88L1218.26 1780.95L974.623 1643.88L1218.26 1506.94L1461.9 1643.88Z" stroke="#1EE6F6" stroke-opacity="0.05" stroke-miterlimit="10"/>
<path d="M-0.0503867 1643.88L-243.688 1780.95L-487.325 1643.88L-243.688 1506.94L-0.0503867 1643.88Z" fill="#0B0247" stroke="#1EE6F6" stroke-opacity="0.05" stroke-miterlimit="10"/>
<path d="M243.586 1780.95L-0.0513864 1917.89L-243.689 1780.95L-0.0513864 1643.88L243.586 1780.95Z" stroke="#1EE6F6" stroke-opacity="0.05" stroke-miterlimit="10"/>
<path d="M487.349 -1.11634L243.586 135.946L-0.0512695 -1.11634L243.586 -138.056L487.349 -1.11634Z" stroke="#1EE6F6" stroke-opacity="0.05" stroke-miterlimit="10"/>
<path d="M730.986 135.946L487.349 272.886L243.586 135.946L487.349 -1.11633L730.986 135.946Z" stroke="#1EE6F6" stroke-opacity="0.05" stroke-miterlimit="10"/>
<path d="M974.623 -1.11634L730.986 135.946L487.349 -1.11634L730.986 -138.056L974.623 -1.11634Z" fill="#0B0247" stroke="#1EE6F6" stroke-opacity="0.05" stroke-miterlimit="10"/>
<path d="M974.623 272.886L730.986 409.948L487.349 272.886L730.986 135.946L974.623 272.886Z" stroke="#1EE6F6" stroke-opacity="0.05" stroke-miterlimit="10"/>
<path d="M1218.26 135.946L974.623 272.886L730.986 135.946L974.623 -1.11633L1218.26 135.946Z" stroke="#1EE6F6" stroke-opacity="0.05" stroke-miterlimit="10"/>
<path d="M1461.9 -1.11634L1218.26 135.946L974.623 -1.11634L1218.26 -138.056L1461.9 -1.11634Z" stroke="#1EE6F6" stroke-opacity="0.05" stroke-miterlimit="10"/>
<path d="M-0.0503867 -1.11634L-243.688 135.946L-487.325 -1.11634L-243.688 -138.056L-0.0503867 -1.11634Z" fill="#0B0247" stroke="#1EE6F6" stroke-opacity="0.05" stroke-miterlimit="10"/>
<path d="M-0.0503867 272.886L-243.688 409.948L-487.325 272.886L-243.688 135.946L-0.0503867 272.886Z" stroke="#1EE6F6" stroke-opacity="0.05" stroke-miterlimit="10"/>
<path d="M243.586 135.946L-0.0513864 272.886L-243.689 135.946L-0.0513864 -1.11633L243.586 135.946Z" stroke="#1EE6F6" stroke-opacity="0.05" stroke-miterlimit="10"/>
<path d="M-0.0503867 546.888L-243.688 683.95L-487.325 546.888L-243.688 409.948L-0.0503867 546.888Z" fill="#0B0247" stroke="#1EE6F6" stroke-opacity="0.05" stroke-miterlimit="10"/>
<path d="M243.586 409.948L-0.0513864 546.888L-243.689 409.948L-0.0513864 272.886L243.586 409.948Z" stroke="#1EE6F6" stroke-opacity="0.05" stroke-miterlimit="10"/>
<path d="M487.349 272.886L243.586 409.948L-0.0512695 272.886L243.586 135.946L487.349 272.886Z" fill="#0B0247" stroke="#1EE6F6" stroke-opacity="0.05" stroke-miterlimit="10"/>
<path d="M243.586 683.95L-0.0513864 820.89L-243.689 683.95L-0.0513864 546.888L243.586 683.95Z" stroke="#1EE6F6" stroke-opacity="0.05" stroke-miterlimit="10"/>
<path d="M487.349 546.888L243.586 683.95L-0.0512695 546.888L243.586 409.948L487.349 546.888Z" stroke="#1EE6F6" stroke-opacity="0.05" stroke-miterlimit="10"/>
<path d="M730.986 409.948L487.349 546.888L243.586 409.948L487.349 272.886L730.986 409.948Z" stroke="#1EE6F6" stroke-opacity="0.05" stroke-miterlimit="10"/>
</g>
<defs>
<clipPath id="clip0_304_311">
<rect width="2923.9" height="1643.89" fill="white"/>
</clipPath>
</defs>
</svg>
