<svg width="694" height="547" viewBox="0 0 694 547" fill="none" xmlns="http://www.w3.org/2000/svg">
<path d="M323.262 457.433L242.13 410.517" stroke="white" stroke-width="3" stroke-linecap="round" stroke-dasharray="0.25 10"/>
<path d="M401.192 419.047L321.127 372.131" stroke="url(#paint0_linear_119_9)" stroke-opacity="0.6" stroke-width="15" stroke-linecap="round"/>
<path d="M401.192 419.047L321.127 372.131" stroke="white" stroke-width="3" stroke-linecap="round" stroke-dasharray="0.25 10"/>
<path d="M401.192 419.047L354.221 391.324" stroke="white" stroke-width="4" stroke-linecap="round"/>
<path d="M481.257 379.595L401.192 332.678" stroke="white" stroke-width="3" stroke-linecap="round" stroke-dasharray="0.25 10"/>
<path d="M554.916 339.076L474.852 292.16" stroke="white" stroke-width="3" stroke-linecap="round" stroke-dasharray="0.25 10"/>
<path d="M627.509 296.425L547.444 250.575" stroke="white" stroke-width="3" stroke-linecap="round" stroke-dasharray="0.25 10"/>
<path d="M429.382 86.2722L300.211 160.912L307.716 173.899L436.887 99.2599L429.382 86.2722Z" fill="url(#paint1_linear_119_9)" fill-opacity="0.6"/>
<path d="M304.904 168.643C305.622 168.229 305.868 167.311 305.454 166.594C305.04 165.876 304.123 165.63 303.405 166.044L304.904 168.643ZM312.035 161.065C311.317 161.479 311.071 162.397 311.485 163.114C311.899 163.832 312.816 164.078 313.534 163.664L312.035 161.065ZM313.75 163.54C314.467 163.126 314.713 162.208 314.299 161.491C313.885 160.773 312.968 160.527 312.25 160.941L313.75 163.54ZM320.88 155.963C320.162 156.377 319.916 157.294 320.33 158.011C320.744 158.729 321.662 158.975 322.379 158.561L320.88 155.963ZM322.595 158.437C323.312 158.023 323.559 157.105 323.145 156.388C322.731 155.67 321.813 155.424 321.096 155.838L322.595 158.437ZM329.725 150.86C329.008 151.274 328.762 152.191 329.175 152.909C329.589 153.626 330.507 153.872 331.224 153.458L329.725 150.86ZM331.44 153.334C332.158 152.92 332.404 152.003 331.99 151.285C331.576 150.567 330.659 150.321 329.941 150.735L331.44 153.334ZM338.57 145.757C337.853 146.171 337.607 147.088 338.021 147.806C338.435 148.523 339.352 148.769 340.07 148.355L338.57 145.757ZM340.285 148.231C341.003 147.817 341.249 146.9 340.835 146.182C340.421 145.464 339.504 145.218 338.786 145.632L340.285 148.231ZM347.416 140.654C346.698 141.068 346.452 141.985 346.866 142.703C347.28 143.42 348.197 143.666 348.915 143.252L347.416 140.654ZM349.131 143.128C349.848 142.714 350.094 141.797 349.68 141.079C349.266 140.362 348.349 140.115 347.631 140.529L349.131 143.128ZM356.261 135.551C355.543 135.965 355.297 136.882 355.711 137.6C356.125 138.317 357.043 138.564 357.76 138.15L356.261 135.551ZM357.976 138.025C358.693 137.611 358.94 136.694 358.526 135.976C358.112 135.259 357.194 135.013 356.477 135.427L357.976 138.025ZM365.106 130.448C364.389 130.862 364.143 131.779 364.557 132.497C364.97 133.215 365.888 133.461 366.605 133.047L365.106 130.448ZM366.821 132.922C367.539 132.508 367.785 131.591 367.371 130.873C366.957 130.156 366.04 129.91 365.322 130.324L366.821 132.922ZM373.951 125.345C373.234 125.759 372.988 126.676 373.402 127.394C373.816 128.112 374.733 128.358 375.451 127.944L373.951 125.345ZM375.666 127.819C376.384 127.405 376.63 126.488 376.216 125.77C375.802 125.053 374.885 124.807 374.167 125.221L375.666 127.819ZM382.797 120.242C382.079 120.656 381.833 121.574 382.247 122.291C382.661 123.009 383.578 123.255 384.296 122.841L382.797 120.242ZM384.512 122.716C385.229 122.302 385.475 121.385 385.061 120.668C384.647 119.95 383.73 119.704 383.012 120.118L384.512 122.716ZM391.642 115.139C390.924 115.553 390.678 116.471 391.092 117.188C391.506 117.906 392.424 118.152 393.141 117.738L391.642 115.139ZM393.357 117.614C394.074 117.2 394.321 116.282 393.907 115.565C393.493 114.847 392.575 114.601 391.858 115.015L393.357 117.614ZM400.487 110.037C399.77 110.451 399.524 111.368 399.938 112.085C400.352 112.803 401.269 113.049 401.986 112.635L400.487 110.037ZM402.202 112.511C402.92 112.097 403.166 111.179 402.752 110.462C402.338 109.744 401.421 109.498 400.703 109.912L402.202 112.511ZM409.333 104.934C408.615 105.348 408.369 106.265 408.783 106.983C409.197 107.7 410.114 107.946 410.832 107.532L409.333 104.934ZM411.047 107.408C411.765 106.994 412.011 106.076 411.597 105.359C411.183 104.641 410.266 104.395 409.548 104.809L411.047 107.408ZM418.178 99.8308C417.46 100.245 417.214 101.162 417.628 101.88C418.042 102.597 418.959 102.843 419.677 102.429L418.178 99.8308ZM419.893 102.305C420.61 101.891 420.856 100.974 420.442 100.256C420.028 99.5384 419.111 99.2923 418.394 99.7063L419.893 102.305ZM427.023 94.7279C426.305 95.1418 426.059 96.0591 426.473 96.7767C426.887 97.4943 427.805 97.7404 428.522 97.3264L427.023 94.7279ZM304.796 168.705L304.904 168.643L303.405 166.044L303.297 166.106L304.796 168.705ZM313.534 163.664L313.75 163.54L312.25 160.941L312.035 161.065L313.534 163.664ZM322.379 158.561L322.595 158.437L321.096 155.838L320.88 155.963L322.379 158.561ZM331.224 153.458L331.44 153.334L329.941 150.735L329.725 150.86L331.224 153.458ZM340.07 148.355L340.285 148.231L338.786 145.632L338.57 145.757L340.07 148.355ZM348.915 143.252L349.131 143.128L347.631 140.529L347.416 140.654L348.915 143.252ZM357.76 138.15L357.976 138.025L356.477 135.427L356.261 135.551L357.76 138.15ZM366.605 133.047L366.821 132.922L365.322 130.324L365.106 130.448L366.605 133.047ZM375.451 127.944L375.666 127.819L374.167 125.221L373.951 125.345L375.451 127.944ZM384.296 122.841L384.512 122.716L383.012 120.118L382.797 120.242L384.296 122.841ZM393.141 117.738L393.357 117.614L391.858 115.015L391.642 115.139L393.141 117.738ZM401.986 112.635L402.202 112.511L400.703 109.912L400.487 110.037L401.986 112.635ZM410.832 107.532L411.047 107.408L409.548 104.809L409.333 104.934L410.832 107.532ZM419.677 102.429L419.893 102.305L418.394 99.7063L418.178 99.8308L419.677 102.429ZM428.522 97.3264L428.63 97.2642L427.131 94.6656L427.023 94.7279L428.522 97.3264Z" fill="white"/>
<path d="M390.003 115.266L303.003 165.266L304.997 168.734L391.997 118.734L390.003 115.266Z" fill="white"/>
<path d="M386.045 205.956C386.76 205.538 387 204.619 386.582 203.904C386.163 203.189 385.244 202.949 384.529 203.368L386.045 205.956ZM393.159 198.315C392.444 198.733 392.204 199.652 392.622 200.367C393.041 201.082 393.96 201.322 394.675 200.904L393.159 198.315ZM394.89 200.777C395.605 200.359 395.845 199.44 395.427 198.725C395.008 198.01 394.089 197.77 393.374 198.188L394.89 200.777ZM402.004 193.136C401.289 193.554 401.049 194.473 401.467 195.188C401.886 195.903 402.805 196.143 403.52 195.725L402.004 193.136ZM403.735 195.598C404.45 195.18 404.691 194.261 404.272 193.546C403.853 192.831 402.935 192.591 402.22 193.009L403.735 195.598ZM410.849 187.957C410.134 188.375 409.894 189.294 410.313 190.009C410.731 190.724 411.65 190.964 412.365 190.546L410.849 187.957ZM412.581 190.419C413.296 190.001 413.536 189.082 413.117 188.367C412.699 187.652 411.78 187.412 411.065 187.83L412.581 190.419ZM419.694 182.778C418.98 183.196 418.739 184.115 419.158 184.83C419.577 185.545 420.495 185.785 421.21 185.367L419.694 182.778ZM421.426 185.24C422.141 184.822 422.381 183.903 421.963 183.188C421.544 182.473 420.625 182.233 419.91 182.651L421.426 185.24ZM428.54 177.599C427.825 178.017 427.585 178.936 428.003 179.651C428.422 180.366 429.341 180.606 430.056 180.187L428.54 177.599ZM430.271 180.061C430.986 179.643 431.226 178.724 430.808 178.009C430.389 177.294 429.47 177.054 428.755 177.472L430.271 180.061ZM437.385 172.42C436.67 172.838 436.43 173.757 436.848 174.472C437.267 175.187 438.186 175.427 438.901 175.008L437.385 172.42ZM439.117 174.882C439.831 174.463 440.072 173.545 439.653 172.83C439.234 172.115 438.316 171.875 437.601 172.293L439.117 174.882ZM446.23 167.24C445.515 167.659 445.275 168.578 445.694 169.293C446.112 170.008 447.031 170.248 447.746 169.829L446.23 167.24ZM447.962 169.703C448.677 169.284 448.917 168.366 448.498 167.651C448.08 166.936 447.161 166.696 446.446 167.114L447.962 169.703ZM455.075 162.061C454.361 162.48 454.12 163.399 454.539 164.114C454.958 164.829 455.876 165.069 456.591 164.65L455.075 162.061ZM456.807 164.524C457.522 164.105 457.762 163.186 457.344 162.472C456.925 161.757 456.006 161.516 455.291 161.935L456.807 164.524ZM463.921 156.882C463.206 157.301 462.966 158.22 463.384 158.935C463.803 159.65 464.722 159.89 465.437 159.471L463.921 156.882ZM465.652 159.345C466.367 158.926 466.607 158.007 466.189 157.293C465.77 156.578 464.851 156.337 464.136 156.756L465.652 159.345ZM472.766 151.703C472.051 152.122 471.811 153.041 472.229 153.756C472.648 154.471 473.567 154.711 474.282 154.292L472.766 151.703ZM474.498 154.166C475.212 153.747 475.453 152.828 475.034 152.113C474.615 151.399 473.697 151.158 472.982 151.577L474.498 154.166ZM481.611 146.524C480.896 146.943 480.656 147.862 481.075 148.577C481.493 149.291 482.412 149.532 483.127 149.113L481.611 146.524ZM483.343 148.987C484.058 148.568 484.298 147.649 483.879 146.934C483.461 146.22 482.542 145.979 481.827 146.398L483.343 148.987ZM490.457 141.345C489.742 141.764 489.501 142.683 489.92 143.398C490.339 144.112 491.257 144.353 491.972 143.934L490.457 141.345ZM492.188 143.808C492.903 143.389 493.143 142.47 492.725 141.755C492.306 141.04 491.387 140.8 490.672 141.219L492.188 143.808ZM499.302 136.166C498.587 136.585 498.347 137.504 498.765 138.218C499.184 138.933 500.103 139.174 500.818 138.755L499.302 136.166ZM501.033 138.629C501.748 138.21 501.988 137.291 501.57 136.576C501.151 135.861 500.232 135.621 499.517 136.04L501.033 138.629ZM508.147 130.987C507.432 131.406 507.192 132.324 507.61 133.039C508.029 133.754 508.948 133.994 509.663 133.576L508.147 130.987ZM385.937 206.02L386.045 205.956L384.529 203.368L384.421 203.431L385.937 206.02ZM394.675 200.904L394.89 200.777L393.374 198.188L393.159 198.315L394.675 200.904ZM403.52 195.725L403.735 195.598L402.22 193.009L402.004 193.136L403.52 195.725ZM412.365 190.546L412.581 190.419L411.065 187.83L410.849 187.957L412.365 190.546ZM421.21 185.367L421.426 185.24L419.91 182.651L419.694 182.778L421.21 185.367ZM430.056 180.187L430.271 180.061L428.755 177.472L428.54 177.599L430.056 180.187ZM438.901 175.008L439.117 174.882L437.601 172.293L437.385 172.42L438.901 175.008ZM447.746 169.829L447.962 169.703L446.446 167.114L446.23 167.24L447.746 169.829ZM456.591 164.65L456.807 164.524L455.291 161.935L455.075 162.061L456.591 164.65ZM465.437 159.471L465.652 159.345L464.136 156.756L463.921 156.882L465.437 159.471ZM474.282 154.292L474.498 154.166L472.982 151.577L472.766 151.703L474.282 154.292ZM483.127 149.113L483.343 148.987L481.827 146.398L481.611 146.524L483.127 149.113ZM491.972 143.934L492.188 143.808L490.672 141.219L490.457 141.345L491.972 143.934ZM500.818 138.755L501.033 138.629L499.517 136.04L499.302 136.166L500.818 138.755ZM509.663 133.576L509.771 133.513L508.255 130.924L508.147 130.987L509.663 133.576Z" fill="white"/>
<path d="M458.637 248.607C459.352 248.189 459.592 247.27 459.173 246.555C458.755 245.84 457.836 245.6 457.121 246.019L458.637 248.607ZM465.75 240.966C465.036 241.384 464.795 242.303 465.214 243.018C465.633 243.733 466.551 243.973 467.266 243.555L465.75 240.966ZM467.482 243.428C468.197 243.01 468.437 242.091 468.019 241.376C467.6 240.661 466.681 240.421 465.966 240.84L467.482 243.428ZM474.596 235.787C473.881 236.205 473.641 237.124 474.059 237.839C474.478 238.554 475.397 238.794 476.112 238.376L474.596 235.787ZM476.327 238.249C477.042 237.831 477.282 236.912 476.864 236.197C476.445 235.482 475.526 235.242 474.811 235.661L476.327 238.249ZM483.441 230.608C482.726 231.026 482.486 231.945 482.904 232.66C483.323 233.375 484.242 233.615 484.957 233.197L483.441 230.608ZM485.173 233.07C485.887 232.652 486.128 231.733 485.709 231.018C485.29 230.303 484.372 230.063 483.657 230.481L485.173 233.07ZM492.286 225.429C491.571 225.847 491.331 226.766 491.75 227.481C492.168 228.196 493.087 228.436 493.802 228.018L492.286 225.429ZM494.018 227.891C494.733 227.473 494.973 226.554 494.554 225.839C494.136 225.124 493.217 224.884 492.502 225.302L494.018 227.891ZM501.131 220.25C500.417 220.668 500.176 221.587 500.595 222.302C501.014 223.017 501.932 223.257 502.647 222.839L501.131 220.25ZM502.863 222.712C503.578 222.294 503.818 221.375 503.4 220.66C502.981 219.945 502.062 219.705 501.347 220.123L502.863 222.712ZM509.977 215.071C509.262 215.489 509.022 216.408 509.44 217.123C509.859 217.838 510.778 218.078 511.493 217.659L509.977 215.071ZM511.708 217.533C512.423 217.115 512.663 216.196 512.245 215.481C511.826 214.766 510.907 214.526 510.192 214.944L511.708 217.533ZM518.822 209.892C518.107 210.31 517.867 211.229 518.285 211.944C518.704 212.659 519.623 212.899 520.338 212.48L518.822 209.892ZM520.554 212.354C521.268 211.935 521.509 211.017 521.09 210.302C520.672 209.587 519.753 209.347 519.038 209.765L520.554 212.354ZM527.667 204.712C526.952 205.131 526.712 206.05 527.131 206.765C527.549 207.48 528.468 207.72 529.183 207.301L527.667 204.712ZM529.399 207.175C530.114 206.756 530.354 205.838 529.935 205.123C529.517 204.408 528.598 204.168 527.883 204.586L529.399 207.175ZM536.513 199.533C535.798 199.952 535.557 200.871 535.976 201.586C536.395 202.301 537.313 202.541 538.028 202.122L536.513 199.533ZM538.244 201.996C538.959 201.577 539.199 200.659 538.781 199.944C538.362 199.229 537.443 198.989 536.728 199.407L538.244 201.996ZM545.358 194.354C544.643 194.773 544.403 195.692 544.821 196.407C545.24 197.122 546.159 197.362 546.874 196.943L545.358 194.354ZM547.089 196.817C547.804 196.398 548.044 195.479 547.626 194.765C547.207 194.05 546.288 193.809 545.574 194.228L547.089 196.817ZM554.203 189.175C553.488 189.594 553.248 190.513 553.667 191.228C554.085 191.943 555.004 192.183 555.719 191.764L554.203 189.175ZM555.935 191.638C556.649 191.219 556.89 190.3 556.471 189.585C556.053 188.871 555.134 188.63 554.419 189.049L555.935 191.638ZM563.048 183.996C562.333 184.415 562.093 185.334 562.512 186.049C562.93 186.763 563.849 187.004 564.564 186.585L563.048 183.996ZM564.78 186.459C565.495 186.04 565.735 185.121 565.316 184.406C564.898 183.692 563.979 183.451 563.264 183.87L564.78 186.459ZM571.894 178.817C571.179 179.236 570.938 180.155 571.357 180.87C571.776 181.584 572.694 181.825 573.409 181.406L571.894 178.817ZM573.625 181.28C574.34 180.861 574.58 179.942 574.162 179.227C573.743 178.512 572.824 178.272 572.109 178.691L573.625 181.28ZM580.739 173.638C580.024 174.057 579.784 174.976 580.202 175.69C580.621 176.405 581.54 176.646 582.255 176.227L580.739 173.638ZM458.529 248.671L458.637 248.607L457.121 246.019L457.013 246.082L458.529 248.671ZM467.266 243.555L467.482 243.428L465.966 240.84L465.75 240.966L467.266 243.555ZM476.112 238.376L476.327 238.249L474.811 235.661L474.596 235.787L476.112 238.376ZM484.957 233.197L485.173 233.07L483.657 230.481L483.441 230.608L484.957 233.197ZM493.802 228.018L494.018 227.891L492.502 225.302L492.286 225.429L493.802 228.018ZM502.647 222.839L502.863 222.712L501.347 220.123L501.131 220.25L502.647 222.839ZM511.493 217.659L511.708 217.533L510.192 214.944L509.977 215.071L511.493 217.659ZM520.338 212.48L520.554 212.354L519.038 209.765L518.822 209.892L520.338 212.48ZM529.183 207.301L529.399 207.175L527.883 204.586L527.667 204.712L529.183 207.301ZM538.028 202.122L538.244 201.996L536.728 199.407L536.513 199.533L538.028 202.122ZM546.874 196.943L547.089 196.817L545.574 194.228L545.358 194.354L546.874 196.943ZM555.719 191.764L555.935 191.638L554.419 189.049L554.203 189.175L555.719 191.764ZM564.564 186.585L564.78 186.459L563.264 183.87L563.048 183.996L564.564 186.585ZM573.409 181.406L573.625 181.28L572.109 178.691L571.894 178.817L573.409 181.406ZM582.255 176.227L582.362 176.164L580.847 173.575L580.739 173.638L582.255 176.227Z" fill="white"/>
<path d="M475.127 505.542L427.188 533.181L379.39 505.542V519.362L427.188 547L475.127 519.362V505.542Z" fill="url(#paint2_linear_119_9)"/>
<path d="M427.188 533.181L475.127 505.542L427.188 477.904L379.39 505.542L427.188 533.181Z" fill="#FBFBFB"/>
<path d="M379.39 517.246V519.361L427.188 547V544.885L379.39 517.246Z" fill="#2776EA"/>
<path d="M475.127 517.246V519.361L427.188 547V544.885L475.127 517.246Z" fill="#2776EA"/>
<path d="M379.39 505.542V507.234L427.188 534.873V533.181L379.39 505.542Z" fill="white"/>
<path d="M475.127 505.542V507.234L427.188 534.873V533.181L475.127 505.542Z" fill="white"/>
<path d="M411.115 496.518C401.527 502.017 401.527 511.042 411.115 516.683C418.869 521.195 430.431 522.041 439.596 519.362C440.583 518.939 440.442 518.516 440.019 518.234C439.596 517.952 438.186 517.247 436.776 516.401C432.969 519.785 428.88 518.657 428.88 518.657C426.06 517.952 424.368 518.234 424.368 518.234C421.689 518.516 423.381 517.529 423.381 517.529C425.214 516.542 427.893 516.965 427.893 516.965C432.123 517.67 433.815 515.696 434.379 514.849C433.392 514.144 433.11 513.439 433.11 512.875C428.739 514.849 423.24 516.401 416.473 512.452C414.499 511.324 413.653 510.055 413.653 508.645C413.089 508.504 410.692 507.799 409.141 505.825C409.141 505.825 410.128 504.697 415.768 504.133C416.755 503.145 418.024 502.158 419.574 501.312C421.125 500.466 422.817 499.761 424.509 499.197C425.637 495.954 427.47 495.39 427.47 495.39C430.854 496.236 431.982 497.646 432.264 497.928C434.661 497.928 436.776 498.492 438.75 499.62C445.518 503.427 442.839 506.671 439.455 509.209C440.583 509.209 442.275 509.491 443.826 510.337C446.223 511.747 448.056 512.734 448.62 513.157C449.043 513.439 449.889 513.58 450.594 513.016C455.247 507.658 453.696 501.03 445.941 496.518C436.494 490.877 420.843 490.877 411.115 496.518Z" fill="#161614"/>
<path d="M425.073 517.106C425.073 517.247 425.073 517.247 424.791 517.247C424.65 517.247 424.368 517.247 424.368 517.247C424.368 517.106 424.368 517.106 424.65 517.106C424.932 516.965 425.073 516.965 425.073 517.106ZM426.765 517.106C426.765 517.247 426.624 517.247 426.342 517.247C426.06 517.247 425.919 517.106 425.919 517.106C425.919 516.965 426.06 516.965 426.342 516.965C426.624 516.824 426.765 516.965 426.765 517.106ZM428.316 517.247C428.316 517.388 428.034 517.388 427.752 517.388C427.47 517.388 427.329 517.247 427.329 517.106C427.329 516.965 427.611 516.965 427.893 516.965C428.175 517.106 428.316 517.106 428.316 517.247ZM430.431 517.388C430.431 517.529 430.149 517.67 429.867 517.67C429.585 517.67 429.303 517.529 429.303 517.529C429.303 517.388 429.585 517.247 429.867 517.247C430.149 517.106 430.431 517.247 430.431 517.388ZM432.123 516.824C432.264 516.965 432.123 517.106 431.841 517.106C431.559 517.247 431.277 517.106 431.136 517.106C430.995 516.965 431.136 516.824 431.418 516.824C431.7 516.683 431.982 516.683 432.123 516.824ZM433.674 516.119C433.815 516.26 433.815 516.401 433.533 516.542C433.392 516.683 433.11 516.683 432.969 516.683C432.828 516.542 432.828 516.401 433.11 516.26C433.251 515.978 433.533 515.978 433.674 516.119ZM435.084 515.273C435.225 515.273 435.225 515.555 435.084 515.696C434.943 515.837 434.661 515.837 434.52 515.837C434.379 515.837 434.379 515.555 434.52 515.414C434.661 515.273 434.943 515.132 435.084 515.273Z" fill="#161614"/>
<path d="M547.842 461.965L500.044 489.744L452.105 461.965V475.925L500.044 503.563L547.842 475.925V461.965Z" fill="url(#paint3_linear_119_9)"/>
<path d="M500.044 489.744L547.842 461.965L500.044 434.326L452.105 461.965L500.044 489.744Z" fill="#FBFBFB"/>
<path d="M452.105 473.668V475.925L500.044 503.563V501.448L452.105 473.668Z" fill="#2776EA"/>
<path d="M547.842 473.668V475.925L500.044 503.563V501.448L547.842 473.668Z" fill="#2776EA"/>
<path d="M452.105 462.106V463.798L500.044 491.436V489.744L452.105 462.106Z" fill="white"/>
<path d="M547.842 462.106V463.798L500.044 491.436V489.744L547.842 462.106Z" fill="white"/>
<path d="M498.916 450.401C498.775 450.259 498.493 450.401 498.352 450.401C498.211 450.401 495.391 451.811 495.391 451.811C495.391 451.811 491.866 451.811 491.443 451.811C491.02 451.811 490.738 452.093 490.597 452.234C490.597 452.234 490.315 452.516 489.892 452.939C487.495 452.234 484.957 451.952 483.124 453.08C483.124 453.08 482.983 453.08 482.983 453.221C481.714 453.08 480.727 453.362 480.163 453.644C475.793 456.182 479.177 460.412 481.291 462.387C480.163 463.656 479.318 464.502 479.177 464.643C478.472 465.348 478.471 465.348 479.317 465.912C479.881 466.335 496.519 478.744 496.519 478.744L519.361 469.719L527.538 462.387C527.397 462.669 499.057 450.401 498.916 450.401ZM489.187 453.785L488.059 455.054C487.918 455.054 487.777 454.913 487.777 454.913C486.649 454.349 485.662 453.926 484.816 453.644C485.803 453.08 487.495 453.221 489.187 453.785ZM483.688 454.349C484.675 454.631 485.803 455.054 487.072 455.759L487.213 455.9C486.508 456.746 485.662 457.592 484.957 458.438C483.124 456.605 483.124 455.195 483.688 454.349ZM481.15 454.349C481.291 454.208 481.573 454.208 481.855 454.067C481.15 455.195 481.291 457.028 483.97 459.284L482.137 461.258C480.445 459.566 478.048 456.182 481.15 454.349Z" fill="#95BF46"/>
<path d="M498.352 450.401C498.211 450.401 495.391 451.811 495.391 451.811C495.391 451.811 491.866 451.811 491.443 451.811C491.302 451.811 491.162 451.811 491.021 451.952L519.22 469.861L527.398 462.528C527.398 462.528 499.057 450.401 498.916 450.26C498.634 450.26 498.493 450.26 498.352 450.401Z" fill="#5E8E3E"/>
<path d="M494.122 459.426L496.66 462.387C496.66 462.387 494.968 462.669 493.558 463.515C491.584 464.644 492.712 465.49 492.994 465.631C494.686 466.618 499.903 464.362 503.992 466.759C507.235 468.592 507.235 470.989 504.556 472.54C501.313 474.373 497.506 474.232 497.506 474.232L495.532 471.976C495.532 471.976 498.775 471.835 500.185 470.989C501.172 470.425 500.749 469.72 500.185 469.438C497.929 468.169 494.122 470.284 490.315 468.028C487.213 466.195 486.367 463.092 490.879 460.554C492.712 459.708 494.122 459.426 494.122 459.426Z" fill="white"/>
<path d="M571.838 111.163L524.04 138.801L476.101 111.163V124.982L524.04 152.761L571.838 124.982V111.163Z" fill="url(#paint4_linear_119_9)"/>
<path d="M524.04 138.801L571.838 111.163L524.04 83.5243L476.101 111.163L524.04 138.801Z" fill="#FBFBFB"/>
<path d="M476.101 122.867V124.982L524.04 152.761V150.505L476.101 122.867Z" fill="#2776EA"/>
<path d="M571.838 122.867V124.982L524.04 152.761V150.505L571.838 122.867Z" fill="#2776EA"/>
<path d="M476.101 111.304V112.996L524.04 140.634V138.942L476.101 111.304Z" fill="white"/>
<path d="M571.838 111.304V112.996L524.04 140.634V138.942L571.838 111.304Z" fill="white"/>
<path d="M518.823 108.907L534.474 117.931L521.502 125.405L518.823 108.907ZM513.183 105.663C516.708 107.778 516.708 111.022 513.183 113.137C509.658 115.252 503.736 115.252 500.211 113.137L513.183 105.663ZM536.589 116.803C533.064 114.688 533.064 111.445 536.589 109.33C540.114 107.214 546.035 107.214 549.56 109.33L536.589 116.803ZM530.949 113.56L515.298 104.394L528.27 96.9205L530.949 113.56Z" fill="#03363D"/>
<path d="M571.837 27.6384L523.899 55.2767L476.101 27.6384V41.4576L523.899 69.0958L571.837 41.4576V27.6384Z" fill="url(#paint5_linear_119_9)"/>
<path d="M523.9 55.2766L571.838 27.6383L524.041 0L476.102 27.6383L523.9 55.2766Z" fill="#FBFBFB"/>
<path d="M476.101 39.3421V41.4573L523.899 69.0955V66.9804L476.101 39.3421Z" fill="#2776EA"/>
<path d="M571.837 39.3421V41.4573L523.898 69.0955V66.9804L571.837 39.3421Z" fill="#2776EA"/>
<path d="M476.101 27.6384V29.4716L523.899 57.1098V55.4177L476.101 27.6384Z" fill="white"/>
<path d="M571.838 27.6384V29.4716L524.04 57.1098V55.4177L571.838 27.6384Z" fill="white"/>
<path d="M549.701 23.6898C548.855 25.241 543.215 33.1376 542.228 34.8298C541.241 36.6629 540.113 37.227 537.716 37.791C535.319 38.214 521.079 41.7393 518.4 42.3034C516.99 42.5854 516.144 42.5854 515.862 42.4444L512.478 40.4702C512.478 40.4702 522.771 31.1634 524.181 29.4713C525.591 27.7792 526.296 27.3561 528.693 26.6511C531.23 25.946 543.92 20.8696 546.458 20.1646L549.842 22.1387C550.265 22.4207 550.265 22.9848 549.701 23.6898Z" fill="#912626"/>
<path d="M546.316 21.716C545.47 23.2672 539.83 31.1638 538.843 32.856C537.856 34.6891 536.728 35.2531 534.331 35.8172C531.934 36.2402 517.694 39.7655 515.015 40.3295C512.336 40.8936 511.631 40.6116 512.759 39.0605C513.887 37.6503 519.95 29.4717 521.359 27.7795C522.769 26.0874 523.474 25.6644 525.871 24.9593C528.409 24.2542 541.663 21.011 544.06 20.3059C546.598 19.8829 547.162 20.1649 546.316 21.716Z" fill="#C6302B"/>
<path d="M544.061 20.4466C543.215 21.9978 537.575 29.8944 536.588 31.5865C535.601 33.4197 534.473 33.9837 532.076 34.5478C529.679 34.9708 515.438 38.4961 512.76 39.0602C511.35 39.3422 510.504 39.3422 510.222 39.2012L506.697 37.227C506.697 37.227 516.989 27.9202 518.399 26.2281C519.809 24.536 520.514 24.1129 522.911 23.4079C525.449 22.7028 538.139 17.6264 540.677 16.9213L544.061 18.8955C544.625 19.1775 544.625 19.6006 544.061 20.4466Z" fill="#912626"/>
<path d="M540.677 18.4725C539.831 20.0236 534.191 27.9203 533.204 29.6124C532.217 31.4455 531.089 32.0096 528.692 32.5736C526.295 32.9967 512.055 36.522 509.376 37.086C506.697 37.65 505.992 37.368 507.12 35.8169C508.248 34.4068 514.311 26.2281 515.721 24.536C517.131 22.8438 517.836 22.4208 520.233 21.7157C522.771 21.0107 536.024 17.7674 538.421 17.0624C540.959 16.6393 541.523 16.9214 540.677 18.4725Z" fill="#C6302B"/>
<path d="M538.28 17.0626C537.434 18.6137 531.795 26.5103 530.808 28.2025C529.821 30.0356 528.693 30.5997 526.296 31.1637C523.899 31.5868 509.658 35.1121 506.979 35.6761C505.569 35.9581 504.723 35.9581 504.441 35.8171L500.917 33.843C500.917 33.843 511.209 24.5362 512.619 22.844C514.029 21.1519 514.734 20.7289 517.131 20.0238C519.669 19.3187 532.359 14.2423 534.897 13.5373L538.28 15.5114C538.703 15.7935 538.703 16.2165 538.28 17.0626Z" fill="#912626"/>
<path d="M534.755 15.0883C533.909 16.6394 528.269 24.5361 527.282 26.2282C526.295 28.0613 525.167 28.6254 522.77 29.1894C520.374 29.6125 506.133 33.1378 503.454 33.7018C500.775 34.2659 500.07 33.9838 501.198 32.4327C502.326 31.0226 508.389 22.8439 509.799 21.1518C511.209 19.4596 511.914 19.0366 514.311 18.3316C516.849 17.6265 530.102 14.3832 532.499 13.6782C535.037 13.2551 535.742 13.5372 534.755 15.0883Z" fill="#C6302B"/>
<path d="M519.669 19.8826L516.99 21.7157L517.977 22.9848L515.157 22.5618L511.491 24.3949L513.183 22.4208L511.068 21.9977L514.452 21.1517L516.003 19.4595L516.849 20.5876L519.669 19.8826ZM523.617 26.5101L515.721 28.3433L522.488 23.1258L523.617 26.5101ZM509.094 27.0741C511.491 25.664 514.029 25.1 515.016 25.523C515.862 26.0871 514.734 27.4972 512.478 28.9073C510.222 30.3174 507.543 30.8814 506.556 30.4584C505.569 29.8944 506.838 28.3432 509.094 27.0741Z" fill="white"/>
<path d="M523.617 18.1907L530.102 16.4986L527.283 20.3059L523.617 18.1907Z" fill="#621B1C"/>
<path d="M520.514 22.2797L523.616 18.0493L527.282 20.1645L527 20.5876L520.514 22.2797Z" fill="#9A2928"/>
<path d="M694 377.674L646.132 405.271L598.263 377.674V391.473L646.132 419.07L694 391.473V377.674Z" fill="url(#paint6_linear_119_9)"/>
<path d="M646.132 405.271L694 377.673L646.132 350.076L598.263 377.673L646.132 405.271Z" fill="#FBFBFB"/>
<path d="M598.263 389.36V391.472L646.132 419.07V416.958L598.263 389.36Z" fill="#2776EA"/>
<path d="M694 389.36V391.472L646.132 419.07V416.958L694 389.36Z" fill="#2776EA"/>
<path d="M598.263 377.674V379.363L646.132 406.961V405.271L598.263 377.674Z" fill="white"/>
<path d="M694 377.674V379.363L646.132 406.961V405.271L694 377.674Z" fill="white"/>
<path d="M665.701 376.547C664.152 377.392 663.026 378.236 662.463 379.081C662.322 379.363 661.759 379.644 662.181 379.785C662.463 379.785 662.744 379.926 663.167 379.926C663.73 380.067 664.715 380.067 665.419 380.067C666.123 380.067 666.827 379.926 667.531 379.926C668.798 379.785 669.925 379.363 671.192 379.222C671.896 379.081 672.74 379.081 673.444 378.94C673.867 378.94 674.148 378.94 674.571 378.94C674.289 378.94 674.007 378.8 673.585 378.8C673.163 378.8 672.881 378.8 672.459 378.8C671.192 378.659 669.784 378.659 668.376 378.8C667.25 378.94 665.419 379.363 664.434 379.081C664.434 379.081 664.434 379.081 664.293 379.081C664.715 378.8 664.997 378.377 665.279 378.096C665.701 377.673 666.405 377.251 666.968 376.828C667.25 376.547 667.39 376.406 667.672 376.124L667.531 375.984C666.827 375.984 666.123 375.843 665.419 375.843C663.589 375.984 661.618 376.124 659.788 376.265C658.802 376.406 657.676 376.688 656.831 376.828C656.409 376.828 655.986 377.11 655.705 377.11C654.86 377.11 654.156 376.828 653.452 376.688C651.763 376.406 650.073 375.984 648.384 375.702C647.258 375.42 646.272 375.139 645.146 374.998C639.796 374.294 635.572 374.294 630.222 375.139C629.096 375.28 628.11 375.702 626.843 376.124C626.28 376.406 625.858 376.688 625.294 376.969C624.872 377.11 624.168 376.969 623.746 377.11C621.915 377.392 617.551 378.096 618.677 379.785C619.381 380.771 622.056 380.771 623.042 380.912C623.886 380.912 624.731 381.053 625.576 381.193C625.998 381.334 626.421 381.475 626.984 381.616C628.11 381.897 629.377 382.32 630.644 382.601C631.207 382.742 631.911 382.883 632.615 382.883C633.038 382.883 633.319 382.883 633.742 383.024C633.882 383.446 634.446 383.728 634.727 384.15C636.276 385.84 639.232 387.248 641.907 387.67C642.752 387.811 644.583 387.952 645.146 387.107C645.709 386.403 644.301 385.84 643.597 385.136C643.456 384.995 643.175 384.854 643.175 384.714C644.019 384.854 644.864 384.995 645.568 385.136C647.117 385.277 649.229 385.277 650.777 385.136C651.622 385.136 652.607 385.136 653.452 384.995C653.171 384.995 652.889 384.995 652.608 384.995C651.904 384.995 651.059 384.995 650.355 384.854C648.384 384.713 646.554 384.432 644.583 384.009C643.597 383.869 642.752 383.587 641.907 383.446C641.485 383.446 641.204 383.165 640.922 383.165C641.063 383.587 641.063 384.009 641.344 384.432C641.767 385.136 642.752 385.699 643.738 386.403C642.893 386.685 642.048 386.403 641.344 386.262C639.373 385.84 636.98 384.573 635.854 383.305C635.572 383.024 634.868 381.897 634.305 381.757C633.883 381.616 633.179 381.757 632.756 381.616C632.193 381.616 631.348 381.475 630.785 381.334C629.236 380.912 627.829 380.349 626.139 380.067C625.435 379.926 624.45 379.785 623.605 379.785C622.76 379.644 621.915 379.785 620.93 379.504C620.648 379.504 620.085 379.363 620.085 379.081C619.944 378.94 619.944 378.94 620.085 378.8C620.085 378.518 621.071 378.236 621.493 378.236C622.479 377.955 623.464 377.814 624.45 377.673C624.872 377.673 625.576 377.673 625.998 377.532L626.421 377.251C627.125 376.969 627.829 376.547 628.532 376.265C629.94 375.843 631.348 375.561 632.756 375.42C636.98 374.857 641.344 374.998 645.568 375.702C646.272 375.843 646.835 375.984 647.398 376.124C648.806 376.406 650.214 376.688 651.622 376.969C652.889 377.251 654.297 377.532 655.705 377.673C656.409 377.673 657.817 377.251 658.521 376.969C659.084 376.828 659.788 376.547 660.492 376.547C661.618 376.406 662.744 376.265 663.73 376.124C663.73 376.688 665.279 376.406 665.701 376.547Z" fill="#00546B"/>
<path d="M628.532 378.237C628.25 378.377 627.968 378.518 627.828 378.8C628.25 378.941 628.813 378.8 629.236 378.941C629.658 379.081 630.221 379.081 630.643 379.222C630.784 378.941 630.503 378.659 630.08 378.377C629.799 378.377 629.658 378.237 629.376 378.237C629.236 378.237 628.813 378.237 628.532 378.237Z" fill="#00546B"/>
<path d="M645.28 69.7638L597.341 97.4021L549.543 69.7638V83.583L597.341 111.221L645.28 83.583V69.7638Z" fill="url(#paint7_linear_119_9)"/>
<path d="M597.341 97.402L645.28 69.7636L597.341 42.1253L549.543 69.7636L597.341 97.402Z" fill="#FBFBFB"/>
<path d="M549.543 81.4676V83.5828L597.341 111.221V109.106L549.543 81.4676Z" fill="#2776EA"/>
<path d="M645.28 81.4676V83.5828L597.341 111.221V109.106L645.28 81.4676Z" fill="#2776EA"/>
<path d="M549.543 69.7638V71.4559L597.341 99.0943V97.4021L549.543 69.7638Z" fill="white"/>
<path d="M645.28 69.7638V71.4559L597.341 99.0943V97.4021L645.28 69.7638Z" fill="white"/>
<path d="M607.212 75.6864L622.298 70.3279L599.598 57.2138L590.292 65.9565L607.212 75.6864Z" fill="#205B97"/>
<path d="M599.598 57.2138L603.123 56.5088L623.567 68.3538L622.439 70.3279L599.598 57.2138ZM607.212 75.6864L597.906 84.4291L575.206 71.315L590.292 65.9566L607.212 75.6864Z" fill="#5193CE"/>
<path d="M575.205 71.315L574.077 73.2892L594.522 85.1342L598.047 84.4292L575.205 71.315Z" fill="#205B97"/>
<path d="M617.927 78.2246L620.183 74.2762L592.83 58.4829L585.921 59.752L599.739 69.3408L617.927 78.2246Z" fill="#5193CE"/>
<path d="M611.723 81.8908L604.814 83.1599L577.461 67.3665L579.717 63.4182L596.355 71.3149L611.723 81.8908Z" fill="#205B97"/>
<path d="M579.717 63.4181L585.921 59.7518L617.786 78.2244L611.582 81.8907L579.717 63.4181Z" fill="#2E73B7"/>
<path d="M620.557 420.526L572.759 448.126L524.82 420.526V434.326L572.759 461.925L620.557 434.326V420.526Z" fill="url(#paint8_linear_119_9)"/>
<path d="M572.759 448.126L620.557 420.526L572.759 392.927L524.82 420.526L572.759 448.126Z" fill="#FBFBFB"/>
<path d="M524.82 432.214V434.326L572.759 461.925V459.813L524.82 432.214Z" fill="#2776EA"/>
<path d="M620.557 432.214V434.326L572.759 461.925V459.813L620.557 432.214Z" fill="#2776EA"/>
<path d="M524.82 420.526V422.216L572.759 449.816V448.126L524.82 420.526Z" fill="white"/>
<path d="M620.557 420.526V422.216L572.759 449.816V448.126L620.557 420.526Z" fill="white"/>
<path d="M577.714 416.239L572.98 421.688L569.531 426.815L568.247 428.097C568.247 428.578 568.167 429.139 568.086 429.62C568.006 430.181 567.926 430.742 567.846 431.142C567.766 431.623 567.766 432.344 567.846 432.745C568.006 433.386 568.247 433.946 568.568 434.347C569.21 435.068 570.253 435.469 571.616 435.629C573.381 435.789 575.949 435.629 578.356 435.068C579.559 434.828 581.565 434.267 582.929 433.786C585.175 432.985 589.186 431.302 591.192 430.181C591.593 429.94 592.155 429.7 592.155 429.62C592.155 429.54 591.914 429.059 591.513 428.498C590.309 426.415 588.865 424.572 587.341 423.21C586.459 422.409 585.095 421.367 583.41 420.165C582.929 419.845 581.244 418.803 580.602 418.483C579.559 417.922 578.757 417.521 577.794 417.201C577.634 417.121 577.553 417.121 577.553 417.121C577.553 417.121 577.634 417.041 578.195 416.4L577.714 416.239ZM576.992 417.762C577.072 417.762 578.837 418.563 579.96 419.124C580.201 419.284 580.361 419.364 580.281 419.364C580.201 419.364 578.837 419.604 577.874 419.765C576.992 419.845 575.307 420.085 574.986 420.085C574.906 420.085 574.906 420.085 575.146 419.765C575.788 419.124 576.992 417.762 576.992 417.762ZM574.585 420.486C574.665 420.486 574.826 420.406 575.307 420.326C577.072 420.085 579.399 419.685 580.361 419.524C580.682 419.444 580.602 419.444 580.522 419.845C580.201 420.806 579.639 421.848 578.837 423.13C578.676 423.37 578.596 423.53 578.596 423.53C578.596 423.53 578.516 423.45 578.356 423.29C577.393 422.329 576.27 421.447 575.146 420.806C574.585 420.566 574.585 420.566 574.585 420.486ZM574.104 421.127C574.184 421.127 575.307 421.848 575.628 422.008C576.35 422.489 576.911 423.05 577.473 423.611C577.634 423.771 577.714 423.851 577.714 423.931C577.714 423.931 576.27 423.931 575.788 423.931C574.906 423.931 574.104 423.771 573.381 423.691C572.98 423.611 572.339 423.45 572.339 423.45C572.339 423.37 574.104 421.127 574.104 421.127ZM572.018 423.931C572.098 423.931 572.178 423.931 572.339 424.011C572.98 424.171 574.023 424.332 574.826 424.412C575.708 424.492 576.671 424.492 577.393 424.492C577.634 424.492 577.874 424.492 577.874 424.492C577.954 424.492 577.954 424.492 577.393 425.213C576.751 426.014 576.029 426.896 575.227 427.857C574.986 428.097 574.826 428.338 574.585 428.578C574.585 428.578 574.505 428.578 574.424 428.418C574.104 427.456 573.141 425.854 572.258 424.732C572.098 424.572 571.937 424.332 571.937 424.332C571.937 424.091 571.937 424.011 572.018 423.931C571.937 423.931 572.018 423.931 572.018 423.931ZM571.376 424.812C571.376 424.812 571.697 425.293 571.937 425.774C572.419 426.655 572.82 427.537 573.301 428.658C573.381 428.819 573.462 429.059 573.462 429.059C573.462 429.059 573.462 429.059 573.221 429.059C572.659 428.979 572.098 428.738 571.536 428.578C571.055 428.418 570.333 427.937 569.932 427.617C569.691 427.376 569.691 427.376 569.771 427.216C570.172 426.655 571.376 424.812 571.376 424.812ZM581.003 419.685L581.244 419.845C582.447 420.566 583.971 421.527 584.934 422.329C585.095 422.489 585.255 422.569 585.255 422.569C585.255 422.569 585.095 422.649 584.854 422.729C583.811 423.05 582.527 423.37 581.324 423.53C580.522 423.691 579.318 423.851 579.318 423.771C579.318 423.771 579.399 423.53 579.559 423.37C580.04 422.489 580.441 421.527 580.762 420.726C580.843 420.406 581.003 419.925 581.003 419.845V419.685ZM569.29 428.258C569.29 428.258 569.37 428.258 569.531 428.418C569.611 428.498 569.851 428.658 570.012 428.819C570.734 429.299 571.456 429.54 572.659 429.78C572.98 429.86 573.221 429.94 573.221 429.94C573.221 430.02 570.734 432.584 569.932 433.466C569.691 433.706 569.45 433.946 569.45 433.946C569.45 433.946 569.45 433.946 569.37 433.946C568.728 433.386 568.247 432.504 568.247 431.463C568.247 430.822 568.327 430.341 568.648 429.7C568.889 429.059 569.29 428.338 569.29 428.258ZM579.158 424.332C579.158 424.332 579.318 424.252 579.639 424.252C581.484 424.011 583.651 423.37 585.335 422.809L585.496 422.729L585.416 422.889C585.095 423.53 583.731 425.453 582.206 427.296C581.966 427.537 581.805 427.857 581.725 427.857C581.725 427.937 581.645 427.937 581.645 427.937C581.645 427.937 581.565 427.777 581.404 427.537C580.843 426.415 579.96 425.133 579.238 424.332C579.238 424.412 579.158 424.332 579.158 424.332ZM578.596 424.973C578.596 424.973 578.676 425.053 578.757 425.133C579.399 426.014 580.04 427.136 580.602 428.338C580.762 428.658 580.843 428.899 580.843 428.899C580.843 428.899 580.602 428.979 580.281 428.979C578.436 429.219 576.591 429.299 575.066 429.219H574.826L575.146 428.899C576.43 427.617 577.393 426.495 578.195 425.213C578.436 425.133 578.596 424.973 578.596 424.973ZM585.736 422.97C585.897 423.05 586.699 423.851 587.261 424.412C587.742 424.893 588.143 425.293 588.705 426.014C588.946 426.335 589.186 426.575 589.186 426.575H589.106C587.261 427.296 585.416 427.937 583.49 428.418C582.929 428.578 582.206 428.738 582.126 428.738C582.126 428.738 582.287 428.498 582.527 428.097C583.891 426.094 585.255 423.931 585.576 423.13C585.656 423.05 585.736 422.97 585.736 422.97ZM573.943 430.261C573.943 430.261 574.264 431.222 574.665 432.504C574.826 432.985 574.986 433.466 574.986 433.706C575.066 433.946 575.146 434.187 575.227 434.427L575.387 434.748H574.906C574.424 434.748 573.381 434.748 572.9 434.748C571.857 434.668 570.975 434.507 570.253 434.267C569.932 434.187 569.771 434.107 569.851 434.027C569.932 433.946 570.975 432.985 572.018 432.023C572.579 431.463 573.221 430.902 573.462 430.661C573.702 430.421 573.943 430.261 573.943 430.261ZM574.906 430.02H575.307C576.911 430.101 578.356 430.02 579.88 429.78C580.121 429.7 580.361 429.7 580.361 429.7C580.361 429.7 578.275 432.264 577.232 433.466C576.671 434.107 576.189 434.668 576.189 434.668C576.189 434.668 576.109 434.668 576.029 434.668H575.869L575.788 434.427C575.548 433.706 575.387 432.905 575.146 431.142L574.906 430.02ZM582.206 429.299C582.206 429.299 582.527 429.219 582.929 429.139C583.891 428.899 584.613 428.658 585.496 428.338C586.619 427.937 588.143 427.296 589.026 426.896C589.186 426.815 589.266 426.815 589.186 426.815C589.186 426.815 588.625 427.456 588.224 427.857C587.582 428.578 585.576 430.661 583.971 432.344C583.651 432.664 583.41 432.905 583.41 432.905C583.33 432.905 583.169 432.985 583.089 432.985C583.089 432.985 583.009 432.825 583.009 432.584C582.848 431.623 582.608 430.581 582.287 429.62C582.287 429.54 582.206 429.299 582.206 429.299ZM581.244 429.86C581.244 429.86 581.484 430.421 581.886 431.382C582.046 431.783 582.206 432.264 582.287 432.424C582.367 432.584 582.447 432.825 582.527 432.985L582.608 433.225H582.527C582.287 433.305 580.441 433.786 579.96 433.946C579.318 434.107 578.676 434.267 578.115 434.347C577.473 434.427 576.591 434.587 576.591 434.507C576.591 434.507 577.152 433.946 577.794 433.305C579.479 431.623 580.441 430.661 581.003 429.94C581.164 429.94 581.244 429.86 581.244 429.86ZM589.507 426.896C589.587 426.896 591.112 428.819 591.593 429.46C591.673 429.62 591.673 429.62 591.673 429.62C591.593 429.7 590.149 430.261 589.266 430.661C587.742 431.302 585.095 432.344 584.373 432.664L584.212 432.745L584.854 432.184C586.218 430.982 586.779 430.341 587.341 429.78C588.063 428.979 588.705 428.178 589.266 427.296C589.427 427.056 589.507 426.976 589.507 426.896Z" fill="url(#paint9_linear_119_9)"/>
<path d="M553.886 410.951C553.726 411.031 552.522 412.474 551.8 413.515C550.838 414.877 550.196 415.999 549.955 416.72C549.875 417.041 549.875 417.441 549.955 417.521C549.955 417.601 550.035 417.601 550.116 417.682H551.48L553.726 417.041L558.54 415.118L563.995 412.874L563.674 412.634C563.674 412.634 563.674 412.634 563.594 412.634L562.872 412.954L562.551 412.874C560.786 412.634 558.7 412.233 557.416 411.913C556.373 411.672 555.25 411.352 554.448 411.112C553.967 410.951 553.967 410.951 553.886 410.951ZM554.047 411.192C554.047 411.192 554.207 411.272 554.448 411.352C555.25 411.753 556.213 412.073 557.256 412.313C558.058 412.554 557.978 412.554 557.737 412.634C557.015 412.874 554.207 413.996 552.121 414.877C551.8 415.038 551.56 415.118 551.48 415.118C551.399 415.118 552.041 413.996 552.362 413.515C552.763 412.954 553.967 411.272 554.047 411.192ZM551.319 415.518L551.56 415.438C553.084 415.038 556.454 413.675 558.219 412.874C558.379 412.794 558.54 412.714 558.62 412.714C558.62 412.714 558.54 412.874 558.459 413.034C558.058 413.675 557.737 414.477 557.497 414.957C557.416 415.118 557.336 415.278 557.336 415.278C557.336 415.278 557.176 415.358 557.015 415.438L556.775 415.518H555.732C553.886 415.518 552.442 415.518 551.881 415.598L551.319 415.518ZM551.239 415.759L552.924 415.839C553.886 415.919 554.769 415.919 555.01 415.999C555.25 415.999 555.411 415.999 555.411 415.999C555.411 415.999 554.127 416.48 553.405 416.8C552.683 417.041 552.362 417.201 551.881 417.281L551.48 417.361L551.399 417.281C551.078 417.121 550.998 416.56 551.239 415.759ZM558.941 412.794C558.941 412.794 559.021 412.794 559.262 412.874C559.823 413.034 561.508 413.275 561.829 413.355C561.909 413.355 561.989 413.355 561.107 413.675C559.021 414.557 558.299 414.797 558.299 414.797C558.299 414.797 558.299 414.717 558.379 414.717C558.62 414.236 558.78 413.675 558.86 413.115C558.941 412.954 558.941 412.794 558.941 412.794Z" fill="url(#paint10_linear_119_9)"/>
<path d="M549.875 417.521C549.875 417.521 549.955 417.682 550.356 417.762C550.597 417.842 550.998 417.842 551.48 417.842C551.48 417.842 556.213 417.842 556.775 417.842C559.582 417.922 561.668 418.483 563.835 419.685C565.198 420.406 566.081 421.287 566.803 422.409C568.087 424.492 568.488 427.376 567.766 431.142L568.087 430.742C568.167 430.421 568.327 429.94 568.889 428.979C570.012 426.735 571.617 424.332 573.783 421.608C576.912 417.601 582.929 411.592 586.94 408.468L587.341 408.147H587.181C586.057 407.987 585.416 407.907 584.613 407.907C582.287 407.746 580.04 407.907 577.634 408.307C574.344 408.868 570.734 409.91 566.642 411.432C565.84 411.753 564.236 412.393 562.872 412.954C560.064 414.156 558.219 414.877 556.133 415.759C555.411 416.079 554.287 416.48 553.565 416.8C553.164 416.96 552.442 417.201 551.8 417.361C551.159 417.441 550.437 417.682 549.875 417.521ZM552.603 417.521C552.603 417.521 552.683 417.521 552.843 417.441C553.084 417.361 553.485 417.281 553.886 417.121C554.207 417.041 554.448 416.96 554.769 416.8C555.17 416.64 555.491 416.56 555.491 416.56C555.571 416.56 557.817 417.281 558.7 417.521C559.021 417.601 559.262 417.682 559.262 417.762C559.262 417.762 559.101 417.762 558.941 417.682C557.176 417.441 555.09 417.361 553.084 417.441C552.843 417.441 552.603 417.521 552.603 417.521ZM555.972 416.4C555.972 416.4 556.133 416.319 556.293 416.239C557.416 415.839 559.342 415.038 560.545 414.557C560.786 414.477 560.946 414.397 560.946 414.397C560.946 414.397 560.946 414.477 560.866 414.557C560.786 414.717 560.465 415.358 560.385 415.598C560.224 416.159 560.064 416.72 560.064 417.201C560.064 417.361 560.064 417.521 560.064 417.521C560.064 417.521 559.903 417.521 559.823 417.441C558.86 417.121 557.416 416.72 556.213 416.48C556.133 416.4 555.972 416.4 555.972 416.4ZM561.508 414.236C561.588 414.236 561.749 414.316 562.31 414.477C563.273 414.797 564.236 415.278 565.038 415.759C565.279 415.919 565.439 415.999 565.439 416.079V416.159L565.038 416.239C564.316 416.48 563.112 416.88 562.07 417.201C561.508 417.361 561.027 417.521 561.027 417.521C561.027 417.521 561.027 416.72 561.027 416.4C561.107 415.759 561.428 414.236 561.508 414.236ZM561.909 414.076C561.909 414.076 564.476 413.034 565.68 412.554C566.562 412.233 567.846 411.753 567.926 411.672C568.006 411.672 567.926 411.753 567.685 412.073C566.883 413.275 566.402 414.156 566.081 415.198C566.001 415.438 565.92 415.679 565.92 415.679C565.92 415.679 565.76 415.598 565.6 415.518C564.557 414.957 563.353 414.477 562.07 414.156C562.07 414.076 561.909 414.076 561.909 414.076ZM568.728 411.432C568.728 411.432 569.13 411.753 569.29 411.913C569.932 412.474 570.574 413.435 571.055 414.477C571.135 414.637 571.215 414.797 571.215 414.797C571.215 414.797 570.975 414.877 570.734 414.877C569.771 415.038 568.728 415.198 567.605 415.518C567.284 415.598 567.044 415.679 567.044 415.679C566.963 415.679 567.525 413.996 567.926 413.195C568.167 412.474 568.728 411.432 568.728 411.432ZM569.21 411.192C569.29 411.192 570.493 410.791 571.135 410.551C572.74 410.07 574.745 409.509 576.109 409.189L576.671 409.028L576.43 409.189C574.665 410.791 573.301 412.313 572.178 413.836C572.098 413.996 572.018 414.076 572.018 414.076C572.018 414.076 571.937 413.996 571.857 413.836C571.215 412.794 570.333 411.833 569.29 411.192C569.29 411.272 569.21 411.192 569.21 411.192ZM561.749 418.082C561.749 418.082 562.631 417.762 563.193 417.601C563.995 417.361 565.68 416.88 565.76 416.88C565.76 416.88 565.76 417.041 565.76 417.201C565.68 417.922 565.6 418.723 565.519 419.605C565.519 419.845 565.519 420.085 565.519 420.085H565.439C564.637 419.524 563.514 418.883 562.15 418.242C561.909 418.162 561.749 418.082 561.749 418.082ZM577.393 409.108C577.393 409.108 577.634 409.669 577.714 409.91C577.874 410.39 577.954 410.951 578.275 412.393C578.436 413.115 578.596 413.916 578.677 414.236C578.757 414.477 578.757 414.717 578.757 414.717C578.757 414.717 578.596 414.717 578.356 414.717C576.831 414.557 575.387 414.477 573.783 414.557C573.462 414.557 573.141 414.557 573.061 414.637C572.98 414.637 572.9 414.637 572.9 414.637C572.9 414.637 573.382 413.916 573.783 413.355C574.505 412.393 575.548 411.112 576.43 410.15C576.912 409.589 577.393 409.108 577.393 409.108ZM577.874 408.868C577.874 408.868 578.115 408.788 578.356 408.788C580.361 408.468 582.608 408.307 584.613 408.307C585.175 408.307 586.619 408.307 586.619 408.307C586.619 408.307 586.378 408.468 586.138 408.628C584.052 409.99 581.645 411.993 579.559 413.916C579.399 414.076 579.318 414.156 579.238 414.156C579.238 414.156 579.238 413.916 579.238 413.595C579.318 411.753 579.078 410.791 578.195 409.189C578.035 409.108 577.954 408.948 577.874 408.868ZM567.204 416.48C567.284 416.48 568.327 416.239 569.13 416.079C569.852 415.919 570.975 415.759 571.055 415.759C571.055 415.759 570.975 415.999 570.814 416.239C570.333 417.121 569.932 417.842 569.611 418.723C569.531 418.964 569.45 419.124 569.45 419.124C569.45 419.124 569.45 419.124 569.29 418.883C568.889 418.082 568.247 417.281 567.445 416.56C567.204 416.56 567.204 416.48 567.204 416.48ZM566.642 416.96C566.642 416.96 567.124 417.441 567.365 417.682C567.846 418.162 568.327 418.883 568.568 419.444C568.648 419.605 568.728 419.765 568.809 419.925L568.889 420.165H568.327C567.605 420.165 567.124 420.246 566.562 420.326C566.322 420.406 566.161 420.406 566.161 420.406C566.081 420.406 566.241 419.364 566.322 418.643C566.402 418.082 566.642 416.96 566.642 416.96ZM572.66 415.518L573.061 415.438C574.023 415.278 575.307 415.198 576.27 415.198C576.831 415.198 577.954 415.118 578.195 415.118H578.356L578.035 415.438C576.27 417.281 574.986 418.723 573.542 420.406C573.382 420.566 573.221 420.726 573.221 420.806C573.221 420.806 573.221 420.886 573.221 420.245C573.301 418.643 573.141 417.121 572.66 415.759V415.518ZM571.777 416.32C571.777 416.32 572.098 417.361 572.258 417.922C572.419 418.643 572.659 419.845 572.82 420.646C572.9 420.967 572.9 421.287 572.9 421.287C572.9 421.287 572.82 421.287 572.66 421.207C572.018 420.806 571.135 420.566 570.253 420.326C569.852 420.246 569.771 420.245 569.771 420.165C569.771 420.085 570.413 418.643 570.894 417.762C571.296 417.201 571.777 416.32 571.777 416.32ZM566.723 421.207C566.723 421.207 566.963 421.127 567.124 421.127C567.685 421.047 568.167 420.967 568.648 420.967C568.648 420.967 568.648 421.127 568.568 421.287C568.407 421.768 568.247 422.569 568.167 423.05C568.087 423.531 568.087 423.531 568.006 423.45C567.846 422.97 567.685 422.649 567.525 422.329C567.365 422.008 567.124 421.688 566.883 421.447C566.723 421.287 566.723 421.207 566.723 421.207ZM569.932 420.967C569.932 420.967 570.012 420.967 570.413 420.967C571.135 421.047 572.018 421.287 572.579 421.527L572.66 421.608L572.178 422.168C571.376 423.21 570.654 424.171 570.253 424.893C570.092 425.053 569.932 425.453 569.771 425.694C569.611 425.934 569.531 426.094 569.531 426.094C569.531 426.094 569.531 425.934 569.611 425.694C570.012 424.091 570.172 422.569 569.932 421.207C569.932 421.127 569.932 420.967 569.932 420.967ZM569.29 421.527C569.37 421.527 569.45 422.249 569.45 422.729C569.45 423.931 569.29 424.973 568.809 426.175C568.728 426.335 568.728 426.495 568.728 426.495C568.728 426.495 568.728 426.495 568.648 425.774C568.648 425.373 568.568 424.973 568.488 424.572C568.407 424.332 568.407 424.252 568.488 423.931C568.648 423.29 569.29 421.527 569.29 421.527Z" fill="url(#paint11_radial_119_9)"/>
<g filter="url(#filter0_d_119_9)">
<path d="M187.078 380.617L20.9053 284.813L279.275 135.818L445.447 231.622L187.078 380.617Z" fill="white"/>
<path d="M20.9053 284.812L39.2823 295.544L297.807 146.549L279.275 135.818L20.9053 284.812Z" fill="#E2ECFC"/>
<path d="M45.8225 285.901C50.3811 285.901 54.0766 283.743 54.0766 281.08C54.0766 278.417 50.3811 276.259 45.8225 276.259C41.2639 276.259 37.5684 278.417 37.5684 281.08C37.5684 283.743 41.2639 285.901 45.8225 285.901Z" fill="#B3CEF8"/>
<path d="M57.8138 276.414L53.6089 274.081L90.5188 252.774L94.7237 255.107L57.8138 276.414Z" fill="#B3CEF8"/>
<path d="M247.036 167.079L242.987 164.746L279.897 143.439L283.946 145.772L247.036 167.079Z" fill="#B3CEF8"/>
<path d="M177.732 209.538L169.789 204.872L215.42 178.588L223.207 183.253L177.732 209.538Z" fill="#B3CEF8"/>
<path d="M117.922 280.615L109.087 275.362L170.41 240.02L179.245 245.274L117.922 280.615Z" stroke="#6DA2F1" stroke-width="3"/>
<path d="M236.167 213.939L223.862 206.829L295.967 165.396L308.272 172.506L236.167 213.939Z" fill="#6DA2F1"/>
<path d="M20.9038 284.813V288.529L187.076 384.334V380.617L20.9038 284.813Z" fill="#9CBFF6"/>
<path d="M445.447 231.622V235.184L187.078 384.334V380.617L445.447 231.622Z" fill="#81ABEC"/>
</g>
<path d="M305.721 384.413L139.548 288.609L397.918 139.614L564.09 235.419L305.721 384.413Z" fill="white"/>
<path d="M139.548 288.609L157.925 299.34L416.45 150.19L397.918 139.614L139.548 288.609Z" fill="#CADDFA"/>
<path d="M176.457 280.21L172.408 277.877L209.318 256.57L213.523 259.059L176.457 280.21Z" fill="#84B0F4"/>
<path d="M258.688 233.397L254.483 230.908L276.287 218.622L280.336 220.954L258.688 233.397Z" fill="#84B0F4"/>
<path d="M289.368 215.822L285.318 213.334L306.966 200.892L311.015 203.38L289.368 215.822Z" fill="#84B0F4"/>
<path d="M320.048 197.781L315.999 195.293L337.647 183.006L341.852 185.339L320.048 197.781Z" fill="#84B0F4"/>
<path d="M350.729 179.895L346.524 177.562L368.328 165.12L372.377 167.609L350.729 179.895Z" fill="#84B0F4"/>
<path d="M381.721 162.321L377.672 159.832L399.319 147.546L403.369 149.879L381.721 162.321Z" fill="#84B0F4"/>
<path d="M161.819 282.076L153.876 286.587L161.819 291.253L169.762 286.587L161.819 282.076Z" stroke="#84B0F4" stroke-width="2.5"/>
<path d="M194.834 320.492L213.367 331.223L471.737 182.228L453.359 171.497L194.834 320.492Z" fill="#E2ECFC"/>
<path d="M231.9 312.249L227.851 309.76L264.761 288.453L268.81 290.942L231.9 312.249Z" fill="#B3CEF8"/>
<path d="M313.973 265.28L309.924 262.947L327.211 252.371L331.416 254.859L313.973 265.28Z" fill="#B3CEF8"/>
<path d="M344.809 247.705L340.604 245.217L358.047 235.107L362.096 237.44L344.809 247.705Z" fill="#B3CEF8"/>
<path d="M375.49 229.664L371.441 227.175L388.728 217.066L392.777 219.399L375.49 229.664Z" fill="#B3CEF8"/>
<path d="M406.014 211.778L401.965 209.445L419.252 199.492L423.457 201.825L406.014 211.778Z" fill="#B3CEF8"/>
<path d="M437.163 194.204L432.958 191.871L450.401 181.762L454.45 184.25L437.163 194.204Z" fill="#B3CEF8"/>
<path d="M217.261 313.96L209.318 318.625L217.261 323.136L225.203 318.625L217.261 313.96Z" stroke="#B3CEF8" stroke-width="2.5"/>
<path d="M213.367 331.223L231.744 341.799L490.269 192.804L471.736 182.228L213.367 331.223Z" fill="white"/>
<path d="M250.432 322.825L246.228 320.492L283.137 299.185L287.342 301.517L250.432 322.825Z" fill="#B3CEF8"/>
<path d="M332.506 275.855L328.301 273.523L345.744 263.102L349.793 265.435L332.506 275.855Z" fill="#B3CEF8"/>
<path d="M363.187 258.281L359.138 255.948L376.425 245.683L380.63 248.172L363.187 258.281Z" fill="#B3CEF8"/>
<path d="M394.023 240.24L389.818 237.907L407.261 227.642L411.31 230.13L394.023 240.24Z" fill="#B3CEF8"/>
<path d="M424.547 222.51L420.342 220.177L437.785 210.068L441.834 212.556L424.547 222.51Z" fill="#B3CEF8"/>
<path d="M455.538 204.78L451.489 202.447L468.776 192.493L472.981 194.826L455.538 204.78Z" fill="#B3CEF8"/>
<path d="M235.639 324.691L227.696 329.201L235.639 333.867L243.582 329.201L235.639 324.691Z" stroke="#B3CEF8" stroke-width="2.5"/>
<path d="M231.744 341.799L250.277 352.53L508.646 203.535L490.269 192.804L231.744 341.799Z" fill="#E2ECFC"/>
<path d="M268.809 333.556L264.76 331.068L301.67 309.76L305.719 312.249L268.809 333.556Z" fill="#B3CEF8"/>
<path d="M350.884 286.587L346.834 284.098L364.121 273.678L368.326 276.167L350.884 286.587Z" fill="#B3CEF8"/>
<path d="M381.72 269.012L377.515 266.524L394.958 256.415L399.007 258.748L381.72 269.012Z" fill="#B3CEF8"/>
<path d="M412.4 250.971L408.351 248.483L425.638 238.374L429.842 240.707L412.4 250.971Z" fill="#B3CEF8"/>
<path d="M442.924 233.086L438.875 230.753L456.162 220.799L460.367 223.132L442.924 233.086Z" fill="#B3CEF8"/>
<path d="M474.073 215.511L469.868 213.023L487.31 203.069L491.36 205.557L474.073 215.511Z" fill="#B3CEF8"/>
<path d="M254.17 335.267L246.227 339.933L254.17 344.443L262.112 339.933L254.17 335.267Z" stroke="#B3CEF8" stroke-width="2.5"/>
<path d="M249.81 352.53L268.343 363.106L526.712 214.111L508.335 203.536L249.81 352.53Z" fill="white"/>
<path d="M286.875 344.132L282.826 341.799L319.736 320.492L323.785 322.825L286.875 344.132Z" fill="#B3CEF8"/>
<path d="M368.949 297.163L364.899 294.83L382.186 284.41L386.391 286.743L368.949 297.163Z" fill="#B3CEF8"/>
<path d="M399.785 279.588L395.58 277.255L413.023 266.99L417.072 269.323L399.785 279.588Z" fill="#B3CEF8"/>
<path d="M430.465 261.547L426.416 259.214L443.703 248.949L447.752 251.282L430.465 261.547Z" fill="#B3CEF8"/>
<path d="M460.991 243.817L456.942 241.329L474.229 231.375L478.434 233.863L460.991 243.817Z" fill="#B3CEF8"/>
<path d="M491.983 226.087L487.934 223.754L505.376 213.8L509.425 216.133L491.983 226.087Z" fill="#B3CEF8"/>
<path d="M272.237 345.998L264.294 350.508L272.237 355.019L280.179 350.508L272.237 345.998Z" stroke="#B3CEF8" stroke-width="2.5"/>
<path d="M268.343 363.106L286.72 373.837L545.246 224.843L526.713 214.111L268.343 363.106Z" fill="#E2ECFC"/>
<path d="M305.41 354.863L301.205 352.375L338.115 331.067L342.32 333.556L305.41 354.863Z" fill="#B3CEF8"/>
<path d="M387.484 307.894L383.279 305.406L400.721 294.985L404.771 297.474L387.484 307.894Z" fill="#B3CEF8"/>
<path d="M418.164 290.319L414.115 287.831L431.402 277.722L435.607 280.055L418.164 290.319Z" fill="#B3CEF8"/>
<path d="M448.844 272.278L444.794 269.79L462.237 259.681L466.286 262.014L448.844 272.278Z" fill="#B3CEF8"/>
<path d="M479.524 254.393L475.319 252.06L492.762 242.106L496.811 244.439L479.524 254.393Z" fill="#B3CEF8"/>
<path d="M510.516 236.818L506.467 234.33L523.754 224.376L527.803 226.709L510.516 236.818Z" fill="#B3CEF8"/>
<path d="M290.615 356.574L282.672 361.084L290.615 365.75L298.558 361.084L290.615 356.574Z" stroke="#B3CEF8" stroke-width="2.5"/>
<path d="M287.186 373.838L305.719 384.569L564.088 235.419L545.711 224.843L287.186 373.838Z" fill="white"/>
<path d="M324.251 365.439L320.046 363.106L356.956 341.799L361.161 344.287L324.251 365.439Z" fill="#B3CEF8"/>
<path d="M406.326 318.626L402.121 316.137L419.564 305.717L423.613 308.05L406.326 318.626Z" fill="#B3CEF8"/>
<path d="M437.006 300.896L432.957 298.563L450.243 288.298L454.448 290.786L437.006 300.896Z" fill="#B3CEF8"/>
<path d="M467.842 283.01L463.637 280.521L481.08 270.257L485.129 272.745L467.842 283.01Z" fill="#B3CEF8"/>
<path d="M498.367 265.124L494.317 262.792L511.604 252.682L515.654 255.171L498.367 265.124Z" fill="#B3CEF8"/>
<path d="M529.359 247.55L525.31 245.061L542.596 235.108L546.801 237.441L529.359 247.55Z" fill="#B3CEF8"/>
<path d="M309.457 367.306L301.514 371.816L309.457 376.482L317.399 371.816L309.457 367.306Z" stroke="#B3CEF8" stroke-width="2.5"/>
<path d="M177.944 297.11L196.477 307.686L455.002 158.691L436.469 148.115L177.944 297.11Z" fill="#84B1F3"/>
<path d="M215.01 288.712L210.961 286.379L247.871 265.071L251.92 267.404L215.01 288.712Z" fill="#2776EA"/>
<path d="M297.084 241.742L293.035 239.41L312.502 228.367L316.707 230.7L297.084 241.742Z" fill="#2776EA"/>
<path d="M327.92 224.168L323.715 221.835L341.157 211.726L345.207 214.214L327.92 224.168Z" fill="#2776EA"/>
<path d="M358.599 206.127L354.55 203.794L371.837 193.685L376.042 196.173L358.599 206.127Z" fill="#2776EA"/>
<path d="M389.125 188.397L385.076 185.908L402.363 176.266L406.568 178.599L389.125 188.397Z" fill="#2776EA"/>
<path d="M420.273 170.667L416.068 168.334L433.511 158.38L437.56 160.713L420.273 170.667Z" fill="#2776EA"/>
<path d="M200.37 290.578L192.427 295.088L200.37 299.598L208.313 295.088L200.37 290.578Z" stroke="#2776EA" stroke-width="2.5"/>
<path d="M177.944 297.11V298.998L196.477 309.574V307.686L177.944 297.11Z" fill="#9CBFF6"/>
<path d="M455.002 158.691V160.579L196.477 309.574V307.686L455.002 158.691Z" fill="#9CBFF6"/>
<path d="M139.548 288.609L139.704 292.17L305.72 387.975V384.569L139.548 288.609Z" fill="#9CBFF6"/>
<path d="M564.091 235.418V238.98L305.722 387.974V384.569L564.091 235.418Z" fill="#81ABEC"/>
<path d="M101.719 299.967L20 347.042L183.301 441.329L265.021 394.117L101.719 299.967Z" fill="#E2ECFC"/>
<path d="M41.6368 351.447C45.6705 351.447 48.9405 349.536 48.9405 347.18C48.9405 344.823 45.6705 342.913 41.6368 342.913C37.603 342.913 34.333 344.823 34.333 347.18C34.333 349.536 37.603 351.447 41.6368 351.447Z" fill="#B3CEF8"/>
<path d="M52.248 343.05L48.665 340.848L81.3253 322.128L84.9083 324.193L52.248 343.05Z" fill="#B3CEF8"/>
<path d="M56.3809 361.219C60.4147 361.219 63.6847 359.309 63.6847 356.952C63.6847 354.596 60.4147 352.685 56.3809 352.685C52.3472 352.685 49.0771 354.596 49.0771 356.952C49.0771 359.309 52.3472 361.219 56.3809 361.219Z" fill="#B3CEF8"/>
<path d="M66.9926 352.685L63.4097 350.621L105.716 325.294L109.299 327.359L66.9926 352.685Z" fill="#B3CEF8"/>
<path d="M74.1578 370.579C78.1915 370.579 81.4615 368.669 81.4615 366.312C81.4615 363.955 78.1915 362.045 74.1578 362.045C70.124 362.045 66.854 363.955 66.854 366.312C66.854 368.669 70.124 370.579 74.1578 370.579Z" fill="#B3CEF8"/>
<path d="M84.7705 362.183L81.1875 360.118L109.989 342.775L113.572 344.84L84.7705 362.183Z" fill="#B3CEF8"/>
<path d="M91.1089 381.04C95.1427 381.04 98.4127 379.13 98.4127 376.773C98.4127 374.416 95.1427 372.506 91.1089 372.506C87.0752 372.506 83.8052 374.416 83.8052 376.773C83.8052 379.13 87.0752 381.04 91.1089 381.04Z" fill="#B3CEF8"/>
<path d="M101.72 372.644L97.999 370.579L130.659 351.722L134.38 353.786L101.72 372.644Z" fill="#B3CEF8"/>
<path d="M183.577 433.483C187.611 433.483 190.881 431.573 190.881 429.216C190.881 426.86 187.611 424.949 183.577 424.949C179.543 424.949 176.273 426.86 176.273 429.216C176.273 431.573 179.543 433.483 183.577 433.483Z" fill="#B3CEF8"/>
<path d="M194.188 424.949L190.605 422.884L223.265 404.027L226.986 406.229L194.188 424.949Z" fill="#B3CEF8"/>
<path d="M20.0005 347.042V350.452L183.577 444.876L183.302 441.329L20.0005 347.042Z" fill="#9CBFF6"/>
<path d="M265.021 394.117V397.664L183.577 444.876L183.302 441.329L265.021 394.117Z" fill="#81ABEC"/>
<path d="M620.556 337.041L572.759 364.679L524.82 337.041V350.86L572.759 378.498L620.556 350.86V337.041Z" fill="url(#paint12_linear_119_9)"/>
<path d="M572.759 364.679L620.557 337.041L572.759 309.403L524.821 337.041L572.759 364.679Z" fill="#FBFBFB"/>
<path d="M524.82 348.745V350.86L572.759 378.498V376.383L524.82 348.745Z" fill="#2776EA"/>
<path d="M620.557 348.745V350.86L572.76 378.498V376.383L620.557 348.745Z" fill="#2776EA"/>
<path d="M524.82 337.041V338.733L572.759 366.371V364.679L524.82 337.041Z" fill="white"/>
<path d="M620.557 337.041V338.733L572.76 366.371V364.679L620.557 337.041Z" fill="white"/>
<path d="M556.826 329.568L549.212 340.143C548.789 340.707 549.776 341.271 550.763 341.13L568.811 336.618C570.362 336.195 571.631 335.49 572.336 334.503L580.231 324.068C580.654 323.504 579.667 322.94 578.68 323.081L560.351 327.452C558.8 327.875 557.531 328.58 556.826 329.568Z" fill="#FCB400"/>
<path d="M574.733 336.477L587.564 343.951C588.128 344.374 589.256 344.233 589.538 343.669L598.42 332.106C598.561 331.824 598.561 331.542 598.138 331.26L585.308 323.786C584.744 323.363 583.616 323.504 583.334 324.068L574.451 335.631C574.31 335.913 574.31 336.195 574.733 336.477Z" fill="#18BFFF"/>
<path d="M572.054 338.733L569.798 342.4L569.516 342.823L564.863 350.578C564.581 351.001 563.453 351.283 562.748 350.86L550.623 343.951C550.341 343.81 550.341 343.669 550.341 343.387C550.341 343.246 550.341 343.246 550.341 343.105C550.482 342.964 550.764 342.682 551.046 342.682L570.221 337.887C571.349 337.605 572.336 338.169 572.054 338.733Z" fill="#F82B60"/>
<path d="M693.999 294.875L646.131 322.473L598.263 294.875V308.674L646.131 336.272L693.999 308.674V294.875Z" fill="url(#paint13_linear_119_9)"/>
<path d="M646.132 322.473L694 294.875L646.132 267.278L598.264 294.875L646.132 322.473Z" fill="#FBFBFB"/>
<path d="M598.263 306.562V308.674L646.131 336.272V334.16L598.263 306.562Z" fill="#2776EA"/>
<path d="M694 306.562V308.674L646.131 336.272V334.16L694 306.562Z" fill="#2776EA"/>
<path d="M598.263 294.875V296.565L646.131 324.163V322.473L598.263 294.875Z" fill="white"/>
<path d="M694 294.875V296.565L646.131 324.163V322.473L694 294.875Z" fill="white"/>
<path d="M670.066 296.706C671.051 297.269 671.051 298.114 670.066 298.677L652.045 309.097C651.059 309.66 649.651 309.66 648.666 309.097L622.198 293.89C621.212 293.327 621.212 292.482 622.198 291.919L633.742 285.16L650.215 285.301L670.066 296.706Z" fill="#23A566"/>
<path d="M642.751 289.384L656.971 289.244L650.213 285.301L643.737 288.962C643.455 289.103 643.174 289.244 642.751 289.384Z" fill="#1C8F5A"/>
<path d="M650.214 285.301L643.738 288.962C642.752 289.525 641.344 289.525 640.359 288.962L633.742 285.16L650.214 285.301Z" fill="#8ED1B1"/>
<path fill-rule="evenodd" clip-rule="evenodd" d="M661.054 297.41L649.932 303.887L640.217 298.255L651.34 291.778L661.054 297.41ZM647.961 295.58L649.65 296.565L653.17 294.594L651.48 293.609L647.961 295.58ZM650.776 297.129L652.325 298.114L655.845 296.143L654.155 295.157L650.776 297.129ZM653.311 298.678L654.859 299.522L658.379 297.551L656.83 296.706L653.311 298.678ZM653.451 300.367L651.903 299.522L648.383 301.494L649.932 302.338L653.451 300.367ZM650.917 298.818L649.369 297.833L645.849 299.804L647.397 300.79L650.917 298.818ZM648.242 297.269L646.553 296.284L643.033 298.255L644.722 299.241L648.242 297.269Z" fill="white"/>
<path d="M498.395 69.7233L450.527 97.3209L402.659 69.7233V83.5221L450.527 111.12L498.395 83.5221V69.7233Z" fill="url(#paint14_linear_119_9)"/>
<path d="M450.528 97.3206L498.396 69.7229L450.528 42.1253L402.66 69.7229L450.528 97.3206Z" fill="#FBFBFB"/>
<path d="M402.659 81.4096V83.5217L450.527 111.119V109.007L402.659 81.4096Z" fill="#2776EA"/>
<path d="M498.395 81.4096V83.5217L450.527 111.119V109.007L498.395 81.4096Z" fill="#2776EA"/>
<path d="M402.659 69.7233V71.4129L450.527 99.0106V97.3209L402.659 69.7233Z" fill="white"/>
<path d="M498.395 69.7233V71.4129L450.527 99.0106V97.3209L498.395 69.7233Z" fill="white"/>
<path d="M468.829 80.5648C459.397 85.9154 443.628 86.0562 433.914 80.424C424.481 74.9327 424.481 65.7804 434.195 60.289C443.628 54.9385 459.537 54.7976 468.97 60.4298C478.544 65.7804 478.544 75.0735 468.829 80.5648ZM468.829 80.5648C459.397 85.9154 443.628 86.0562 433.914 80.424C424.481 74.9327 424.481 65.7804 434.195 60.289C443.628 54.9385 459.537 54.7976 468.97 60.4298C478.544 65.7804 478.544 75.0735 468.829 80.5648Z" fill="white"/>
<path d="M466.435 79.2976C458.27 83.9442 444.613 84.085 436.166 79.1568C428 74.3695 428 66.4844 436.447 61.6971C444.613 57.0505 458.41 56.9097 466.576 61.8379C474.883 66.4844 474.883 74.5103 466.435 79.2976ZM466.435 79.2976C458.27 83.9442 444.613 84.085 436.166 79.1568C428 74.3695 428 66.4844 436.447 61.6971C444.613 57.0505 458.41 56.9097 466.576 61.8379C474.883 66.4844 474.883 74.5103 466.435 79.2976Z" fill="#49A32B"/>
<path d="M457.144 67.1883C457.848 67.6107 457.848 68.3148 457.003 68.5964C456.299 69.0188 455.173 69.0188 454.469 68.5964C453.765 68.174 453.765 67.4699 454.469 67.1883C455.314 66.7659 456.44 66.7659 457.144 67.1883ZM453.061 77.6079C453.343 77.4671 453.624 77.3263 453.906 77.1854L455.736 78.3119C454.187 79.5791 452.075 80.1423 450.245 79.4383C449.541 79.1567 448.837 78.8751 448.274 78.5935C447.57 78.3119 447.007 77.8895 446.303 77.4671C444.473 76.4814 443.628 76.3406 441.939 77.1854L439.827 75.9182C439.968 75.7774 439.968 75.7774 440.108 75.6366C440.953 75.0734 441.094 74.651 440.39 74.0878C439.968 73.8061 439.545 73.3837 438.982 73.1021C438.137 72.5389 437.011 71.9757 436.307 71.2717C435.181 70.286 435.321 69.4412 436.729 68.5964C437.152 68.3148 437.574 68.174 437.997 67.8924L439.968 69.0188C439.827 69.1596 439.686 69.3004 439.404 69.3004C438.137 70.0044 438.56 70.286 439.404 70.8492C439.968 71.2717 440.672 71.5533 441.235 71.9757C441.798 72.3981 442.361 72.6797 442.783 73.1021C443.487 73.6653 443.628 74.3694 443.346 75.0734C445.74 74.7918 447.289 75.4958 448.837 76.3406C449.682 76.763 450.386 77.1855 451.371 77.6079C451.935 78.0303 452.357 78.0303 453.061 77.6079ZM446.022 72.1165C446.725 71.6941 447.852 71.6941 448.556 72.1165C449.119 72.5389 449.119 73.1021 448.415 73.5245C448.415 73.5245 448.415 73.5245 448.274 73.5245C447.57 73.9469 446.444 73.8061 445.74 73.3837C445.036 72.9613 445.318 72.5389 446.022 72.1165ZM450.245 69.7228C450.949 69.3004 451.935 69.3004 452.779 69.7228C453.483 70.1452 453.624 70.7084 452.779 71.1309C452.075 71.5533 451.09 71.5533 450.245 71.1309H450.104C449.541 70.7084 449.541 70.0044 450.245 69.7228ZM458.27 63.9498C459.256 64.2314 459.819 64.2314 460.664 63.809C460.804 63.6682 460.945 63.6682 461.086 63.5274L463.198 64.7947C463.198 64.9355 463.057 64.9355 462.916 64.9355C461.931 65.6395 461.931 66.0619 462.775 66.7659C463.339 67.1883 464.043 67.6107 464.746 68.0332C465.45 68.4556 466.154 68.878 466.717 69.4412C467.844 70.4268 467.562 71.2717 466.295 72.1165C465.873 72.3981 465.45 72.6797 464.887 72.9613L462.916 71.8349C463.198 71.6941 463.339 71.5533 463.62 71.4125C464.465 70.9901 464.465 70.5676 463.62 70.1452C462.775 69.582 461.931 69.0188 461.086 68.5964C459.819 67.7516 459.115 66.9067 459.396 65.7803C458.27 65.9211 457.144 65.9211 456.158 65.4987C455.032 65.0763 453.906 64.513 452.92 63.9498C452.357 63.6682 451.935 63.3866 451.371 63.105C450.808 62.8234 450.245 62.9642 449.682 63.2458C449.4 63.3866 449.119 63.5274 448.837 63.809L447.007 62.6826C448.837 61.1337 451.231 60.7113 453.483 61.8378C454.469 62.2602 455.314 62.8234 456.299 63.3866C457.144 63.5274 457.707 63.809 458.27 63.9498Z" fill="white"/>
<path d="M645.28 153.247L597.412 180.845L549.543 153.247V167.046L597.412 194.644L645.28 167.046V153.247Z" fill="url(#paint15_linear_119_9)"/>
<path d="M597.412 180.845L645.28 153.247L597.412 125.65L549.544 153.247L597.412 180.845Z" fill="#FBFBFB"/>
<path d="M549.543 164.934V167.046L597.412 194.644V192.532L549.543 164.934Z" fill="#2776EA"/>
<path d="M645.28 164.934V167.046L597.412 194.785V192.532L645.28 164.934Z" fill="#2776EA"/>
<path d="M549.543 153.388V155.078L597.412 182.676V180.986L549.543 153.388Z" fill="white"/>
<path d="M645.28 153.388V155.078L597.412 182.676V180.986L645.28 153.388Z" fill="white"/>
<path d="M611.209 148.882C611.772 149.164 611.772 149.727 611.209 150.009C610.645 150.29 609.801 150.29 609.237 150.009L600.086 144.799C599.523 144.517 599.523 143.954 600.086 143.672C600.649 143.391 601.494 143.391 602.057 143.672L611.209 148.882ZM617.262 152.825C617.262 152.965 616.699 156.908 609.801 160.991C602.902 164.934 596.003 165.356 595.722 165.356C594.877 165.356 594.314 165.075 594.173 164.652C594.173 164.23 594.736 163.807 595.44 163.807C595.581 163.807 601.635 163.385 607.689 160.006C613.884 156.486 614.306 152.965 614.306 152.965C614.306 152.543 615.01 152.121 615.855 152.261C616.699 151.839 617.262 152.261 617.262 152.825ZM579.953 156.486C579.39 156.204 579.39 155.641 579.953 155.359C580.517 155.077 581.361 155.077 581.924 155.359L591.076 160.569C591.639 160.85 591.639 161.414 591.076 161.695C590.513 161.977 589.668 161.977 589.105 161.695L579.953 156.486ZM582.91 152.402C582.347 152.121 582.347 151.557 582.91 151.276C583.473 150.994 584.318 150.994 584.881 151.276L598.397 159.02C598.96 159.302 598.96 159.865 598.397 160.146C597.834 160.428 596.989 160.428 596.426 160.146L582.91 152.402ZM587.415 149.164C586.852 148.882 586.852 148.319 587.415 148.037C587.978 147.756 588.823 147.756 589.386 148.037L604.028 156.486C604.592 156.767 604.592 157.33 604.028 157.612C603.465 157.894 602.62 157.894 602.057 157.612L587.415 149.164ZM593.047 146.488C592.484 146.207 592.484 145.644 593.047 145.362C593.61 145.08 594.455 145.08 595.018 145.362L608.534 153.106C609.097 153.388 609.097 153.951 608.534 154.233C607.97 154.514 607.126 154.514 606.563 154.233L593.047 146.488ZM594.877 139.167L572.069 152.261C569.957 153.529 569.957 155.5 572.069 156.626L594.877 169.721C596.989 170.988 600.368 170.988 602.48 169.721L625.287 156.626C627.399 155.359 627.399 153.388 625.287 152.261L602.48 139.167C600.368 137.899 596.989 137.899 594.877 139.167Z" fill="#1F8DED"/>
<path d="M547.841 378.44L499.903 406.078L452.105 378.44V392.259L499.903 419.898L547.841 392.259V378.44Z" fill="url(#paint16_linear_119_9)"/>
<path d="M499.903 406.078L547.842 378.44L499.903 350.802L452.105 378.44L499.903 406.078Z" fill="#FBFBFB"/>
<path d="M452.105 390.144V392.259L499.903 419.897V417.782L452.105 390.144Z" fill="#2776EA"/>
<path d="M547.842 390.144V392.259L499.903 419.897V417.782L547.842 390.144Z" fill="#2776EA"/>
<path d="M452.105 378.44V380.132L499.903 407.771V406.078L452.105 378.44Z" fill="white"/>
<path d="M547.842 378.44V380.132L499.903 407.771V406.078L547.842 378.44Z" fill="white"/>
<path d="M504.273 361.237C503.709 361.519 504.132 361.519 503.145 362.506C502.158 363.352 500.607 364.198 499.761 365.326C497.364 368.569 502.44 372.377 500.748 375.62C499.62 378.017 496.941 379.709 495.249 381.684C494.121 382.953 493.416 384.504 493.134 386.196C492.993 387.465 493.839 387.888 493.839 389.298C493.839 390.849 488.764 392.259 489.046 394.375C490.173 394.375 490.596 394.375 491.442 393.669C491.583 394.093 490.737 395.08 491.583 395.221C492.57 395.503 496.236 393.81 497.364 391.131C497.928 389.862 497.787 388.593 499.62 387.183C502.017 385.35 505.824 383.94 509.349 382.389C510.336 383.517 510.336 384.504 510.618 385.632C510.618 385.914 511.323 385.491 512.028 384.927C513.156 383.94 513.861 383.094 514.284 382.107C514.848 380.837 513.015 379.568 514.284 378.44C516.681 378.722 519.501 377.453 519.924 375.902C518.232 376.466 514.848 375.056 514.143 374.069C513.438 373.082 511.887 371.813 510.759 370.544C509.49 369.275 507.516 367.864 507.234 367.159C506.811 365.89 507.234 365.044 507.375 364.198C507.516 363.352 507.516 362.506 505.824 361.519C505.401 360.955 504.696 360.814 504.273 361.237Z" fill="#002B64"/>
<path d="M492.288 394.657C494.685 393.67 495.672 392.683 496.659 391.272C497.505 390.144 497.505 388.593 498.774 387.324C500.466 385.491 503.991 384.363 506.811 382.953C507.516 382.671 508.08 382.248 508.644 381.825C509.067 380.838 506.67 379.568 507.516 379.004C510.618 380.838 511.323 382.671 511.746 384.504C514.143 382.53 514.143 380.556 513.156 378.722C512.874 378.158 512.451 377.594 511.887 376.889C512.592 376.889 513.297 377.453 514.002 377.735C514.848 375.902 513.438 373.787 511.746 371.954C509.631 369.698 507.093 367.865 506.67 367.018C506.388 366.172 506.67 365.467 506.952 364.621C507.234 363.775 507.375 362.929 506.247 362.224C505.26 362.647 504.837 362.647 504.132 362.506C503.991 362.929 503.568 363.211 503.145 363.493C502.722 363.775 502.299 364.057 501.735 364.339C497.505 367.3 502.158 370.544 502.017 374.069C502.017 374.351 502.017 374.633 501.876 374.774C501.594 375.761 500.889 376.889 500.184 377.876C499.056 379.427 497.223 380.415 496.095 381.825C495.249 382.812 494.544 383.94 494.262 385.068C494.121 385.35 494.121 385.632 494.121 385.773C493.98 386.478 494.121 387.042 494.403 387.606C494.544 388.17 494.826 388.734 494.826 389.439C494.826 390.567 490.455 392.26 490.032 393.529C490.032 393.67 490.032 393.811 490.032 393.952C491.019 393.67 491.301 393.388 492.288 392.965C492.993 393.388 491.583 394.657 492.288 394.657ZM514.848 375.197C515.835 375.62 518.091 376.466 518.936 376.325C518.232 377.03 516.399 377.594 515.412 377.453C514.707 376.889 514.989 375.761 514.848 375.197Z" fill="white"/>
<path d="M502.157 366.313C503.426 366.313 504.272 365.185 502.862 364.621C501.734 365.185 501.452 365.749 502.157 366.313ZM505.4 362.788C505.541 363.07 505.682 363.634 506.669 364.057C506.81 364.198 506.81 364.339 506.528 364.198C505.682 363.634 505.4 363.352 505.259 362.788C505.118 362.647 505.259 362.788 505.4 362.788Z" fill="#002B64"/>
<path d="M504.977 362.929C505.118 363.211 505.259 363.916 506.105 364.48C506.246 364.621 506.246 364.762 505.964 364.621C505.118 364.057 504.977 363.493 504.836 363.07C504.836 362.788 504.977 362.788 504.977 362.929ZM504.695 362.929C504.836 363.211 504.836 364.198 505.541 364.762C505.682 364.903 505.682 365.044 505.4 364.903C504.695 364.339 504.554 363.493 504.554 363.07C504.554 362.647 504.695 362.788 504.695 362.929ZM504.413 362.788C504.413 363.07 504.554 364.198 505.118 364.903C505.259 365.044 505.118 365.185 504.977 364.903C504.413 364.198 504.272 363.211 504.272 362.788C504.131 362.647 504.272 362.647 504.413 362.788Z" fill="#002B64"/>
<path d="M474.399 421.292L426.601 448.93L378.663 421.292V435.111L426.601 462.749L474.399 435.111V421.292Z" fill="url(#paint17_linear_119_9)"/>
<path d="M426.601 448.93L474.399 421.292L426.601 393.653L378.663 421.292L426.601 448.93Z" fill="#FBFBFB"/>
<path d="M378.663 432.996V435.111L426.602 462.749V460.634L378.663 432.996Z" fill="#2776EA"/>
<path d="M474.4 432.996V435.111L426.602 462.749V460.634L474.4 432.996Z" fill="#2776EA"/>
<path d="M378.663 421.292V422.984L426.602 450.622V448.93L378.663 421.292Z" fill="white"/>
<path d="M474.4 421.292V422.984L426.602 450.622V448.93L474.4 421.292Z" fill="white"/>
<path d="M409.681 431.444C409.258 431.162 409.399 430.88 409.963 430.598C410.809 430.175 412.078 429.611 413.347 429.47L410.809 427.919C409.54 428.201 408.553 428.624 407.566 429.188C405.31 430.457 405.028 432.008 407.002 433.137C410.104 434.829 413.77 432.149 415.039 432.996C415.603 433.278 415.321 433.701 414.616 433.983C413.77 434.547 412.219 434.97 410.668 435.252L413.347 436.803C414.757 436.521 416.026 435.957 417.013 435.393C419.269 434.124 419.692 432.573 417.718 431.303C414.616 429.47 410.95 432.149 409.681 431.444ZM411.937 424.112L409.822 425.945L418.564 431.021C420.256 432.008 422.653 432.008 424.204 431.021C425.05 430.457 425.614 430.034 425.755 429.752L423.499 428.483C423.358 428.765 422.089 430.034 420.397 429.188L416.449 426.932L418.564 425.663L416.167 424.253L414.052 425.522L411.937 424.112ZM420.679 422.843L419.692 422.42L417.295 423.83L426.883 429.329L429.703 427.778L423.217 423.971C423.076 423.125 424.204 422.561 424.768 422.42L422.23 421.01C421.666 421.151 420.115 421.715 420.679 422.843ZM422.794 420.728L425.614 419.176L435.201 424.676L432.381 426.227L422.794 420.728ZM421.948 420.163L424.063 418.189L421.807 416.92L419.692 418.894L421.948 420.163ZM431.113 415.651C429.985 416.215 429.844 416.92 429.844 417.343L428.998 417.061L426.601 418.471L439.431 425.945L441.546 423.971L438.444 422.138C439.149 422.138 440.136 421.997 441.123 421.433C443.097 420.304 443.238 418.33 439.854 416.356C436.611 414.523 433.087 414.523 431.113 415.651ZM438.021 420.445C437.316 420.869 436.752 420.869 436.188 420.869L432.099 418.471C432.099 418.189 432.24 417.766 432.804 417.343C433.791 416.779 435.624 417.061 437.034 417.907C438.726 418.753 439.149 419.881 438.021 420.445ZM448.596 411.421C445.776 409.729 442.251 409.306 439.572 410.857C436.893 412.408 437.598 414.523 440.418 416.215C443.802 418.189 447.327 418.048 450.006 416.497C451.275 415.792 451.98 414.946 452.403 414.382L450.147 413.113C449.724 413.818 449.16 414.382 448.032 415.087C446.904 415.651 445.635 416.074 444.225 415.369L449.583 412.267C449.442 411.844 448.878 411.562 448.596 411.421ZM442.11 413.959C440.841 413.254 441.123 412.549 441.828 412.126C442.533 411.703 443.802 411.562 444.93 412.408L442.11 413.959Z" fill="#6772E5"/>
<path d="M401.684 462.65L353.816 490.248L305.948 462.65V476.449L353.816 504.047L401.684 476.449V462.65Z" fill="url(#paint18_linear_119_9)"/>
<path d="M353.816 490.248L401.684 462.65L353.816 435.052L305.948 462.65L353.816 490.248Z" fill="#FBFBFB"/>
<path d="M305.948 474.337V476.449L353.816 504.046V501.934L305.948 474.337Z" fill="#2776EA"/>
<path d="M401.684 474.337V476.449L353.816 504.046V501.934L401.684 474.337Z" fill="#2776EA"/>
<path d="M305.948 462.65V464.481L353.816 492.078V490.389L305.948 462.65Z" fill="white"/>
<path d="M401.684 462.65V464.481L353.816 492.078V490.389L401.684 462.65Z" fill="white"/>
<path d="M375.639 456.736C374.935 456.455 373.949 456.595 373.245 456.877C372.964 457.018 372.541 457.299 372.26 457.581C371.697 458.144 371.274 458.426 370.852 458.707C369.866 456.455 368.177 454.202 366.206 452.23C363.109 449.133 360.574 448.288 358.885 448.288C354.802 448.006 350.86 448.851 347.622 450.682C345.933 451.667 344.665 452.653 344.243 453.357C343.398 453.639 342.554 454.061 341.709 454.624C340.16 455.469 339.175 456.455 338.611 457.581C337.767 457.863 336.359 458.285 334.951 458.848C331.713 460.256 329.742 461.664 329.32 463.354C328.756 465.325 330.305 467.297 333.825 469.127C334.951 469.69 338.893 471.239 342.976 472.506C345.369 473.21 347.481 473.774 349.171 474.055C351.705 474.478 353.535 474.478 354.943 474.055C355.788 473.774 356.914 473.351 357.055 472.084C357.336 472.084 357.759 472.084 358.181 472.084C358.744 472.084 359.307 471.943 359.73 471.661C361.419 471.098 362.686 470.253 363.249 469.268C363.39 469.409 363.672 469.549 363.813 469.549C364.094 469.69 364.376 469.831 364.657 469.972C366.347 470.817 367.755 471.521 369.022 471.943C369.022 471.943 369.163 471.943 369.303 472.084C370.007 472.225 371.134 472.647 372.401 472.647C373.809 472.647 374.935 472.225 375.78 471.802C376.202 471.521 376.484 471.38 376.765 471.098C377.751 470.253 378.736 469.268 378.314 467.86C377.891 466.593 376.343 465.184 373.245 463.213C373.105 463.213 373.105 463.072 372.964 463.072L372.823 462.932L373.105 462.791C374.372 462.087 375.639 461.101 376.061 460.256C376.765 459.411 377.751 457.299 375.639 456.736Z" fill="black"/>
<path d="M373.808 458.144C370.851 460.679 369.443 460.115 369.443 460.115C367.613 454.624 361.982 449.414 358.743 449.273C350.155 448.71 345.791 453.779 345.791 453.92C344.946 454.202 343.961 454.624 343.116 455.187C341.427 456.173 340.582 457.159 340.441 458.144C340.441 458.144 323.828 462.087 335.373 468.141C337.766 469.408 356.209 476.308 355.505 471.521C355.224 469.69 355.083 468.141 355.083 468.141C356.209 468 357.195 467.719 358.04 467.156C358.18 467.296 358.462 467.437 358.743 467.578C358.884 468.845 359.307 468.704 357.758 470.112C356.209 471.521 358.04 471.239 359.025 470.957C360.151 470.535 362.686 469.549 362.122 467.437L362.263 467.578C362.967 467.578 364.938 468.423 366.487 469.268C368.036 470.253 369.021 470.817 370.147 471.098C371.274 471.38 373.386 472.365 375.497 470.535C377.187 468.986 377.187 467.719 375.216 466.452C373.949 465.607 374.371 465.607 373.104 464.762L372.682 464.34C370.992 463.072 370.147 462.791 371.837 462.227L372.259 462.087C373.245 461.523 374.371 460.679 374.793 460.115C375.357 458.285 375.075 457.018 373.808 458.144Z" fill="#336791"/>
<path d="M348.044 461.664C347.621 461.805 347.481 462.087 347.34 462.228C347.34 462.368 347.34 462.368 347.481 462.368C347.621 462.509 347.903 462.509 348.044 462.509C348.466 462.509 348.889 462.509 349.029 462.368H349.17C349.592 462.087 349.592 461.805 349.452 461.664C349.17 461.383 348.607 461.524 348.044 461.664ZM359.025 455.469C358.744 455.328 358.321 455.61 358.04 455.751C357.758 456.032 357.477 456.314 357.758 456.455C357.899 456.595 358.603 456.595 358.885 456.314C358.885 456.314 358.885 456.314 359.025 456.314C359.307 456.173 359.307 455.891 359.307 455.891C359.166 455.61 359.166 455.469 359.025 455.469Z" fill="white"/>
<path d="M374.935 457.3C374.372 457.159 373.809 457.3 373.245 457.863C371.556 459.412 370.43 459.693 369.866 459.693C369.022 457.159 367.191 454.483 365.08 452.371C364.094 451.386 362.968 450.541 361.841 449.837C360.715 449.133 359.589 448.71 358.744 448.71C354.943 448.429 351.423 449.133 348.466 450.823C346.495 451.949 345.228 453.216 345.088 453.498C344.243 453.779 343.398 454.202 342.553 454.624C341.005 455.469 340.019 456.455 339.738 457.44C339.034 457.581 337.485 458.004 335.795 458.848C332.839 460.116 331.149 461.383 330.727 462.932C330.164 464.621 331.572 466.311 334.951 468.141C336.077 468.705 339.878 470.254 343.82 471.521C349.17 473.21 352.69 473.633 354.661 473.21C354.943 473.21 355.084 473.07 355.365 472.929C355.928 472.647 356.351 472.084 356.21 471.239C356.069 470.254 355.928 469.127 355.928 468.141C356.773 468.001 357.618 467.719 358.181 467.437C358.181 467.578 358.181 467.719 358.322 467.86C358.463 468.423 358.462 468.564 357.336 469.55C357.055 469.831 356.21 470.535 356.914 470.958C357.759 471.38 359.307 470.958 359.448 470.817C360.011 470.535 360.574 470.394 361.138 470.113C362.264 469.409 362.827 468.705 362.968 467.86C365.784 469.55 368.74 471.098 370.007 471.38C370.993 471.662 373.386 472.225 375.639 470.958C375.92 470.817 376.343 470.535 376.624 470.254C378.455 468.705 378.455 467.437 376.624 466.029C375.639 465.185 373.105 463.354 371.838 462.369C372.26 462.228 372.823 461.946 373.245 461.664C374.231 461.101 375.216 460.256 375.639 459.693C375.498 459.13 376.061 457.722 374.935 457.3ZM359.307 454.624C359.73 454.906 360.152 455.187 360.434 455.469C360.856 455.751 361.278 456.032 361.841 456.455C362.405 456.736 362.968 457.018 363.672 457.3C364.939 457.863 366.206 458.426 366.91 459.412C366.628 459.412 366.347 459.271 366.206 459.271C365.924 459.271 365.502 459.13 364.939 458.989C362.686 458.567 357.618 457.722 357.195 456.455C356.914 456.173 357.195 455.469 359.307 454.624ZM349.452 451.386C352.127 449.837 355.224 449.274 358.603 449.555C361.138 449.696 366.487 454.202 368.599 459.552C368.459 459.552 368.459 459.552 368.318 459.552H368.177C367.614 458.144 365.924 457.3 364.376 456.736C363.812 456.455 363.109 456.173 362.686 455.892C362.123 455.61 361.841 455.328 361.419 455.047C360.997 454.624 360.574 454.343 359.87 453.92C359.87 453.92 359.73 453.779 359.589 453.779C358.885 453.498 356.351 452.794 353.253 452.653C351.564 452.512 349.311 452.653 347.059 453.216C347.622 452.653 348.467 451.949 349.452 451.386ZM354.661 471.38C354.802 472.366 354.098 472.506 353.957 472.506C352.549 472.929 349.03 472.366 344.384 470.817C340.301 469.55 336.64 468.141 335.655 467.578C332.698 466.029 331.431 464.481 331.853 463.073C332.557 460.679 337.485 458.989 339.597 458.426C339.597 458.426 339.597 458.426 339.597 458.567C339.597 461.524 344.102 464.058 344.384 464.199C344.524 464.199 344.665 464.34 344.806 464.481C345.651 464.903 347.059 465.607 348.466 466.733C349.734 467.719 351.564 468.282 353.676 468.282C353.816 468.282 354.098 468.282 354.239 468.282C354.38 468.846 354.38 469.972 354.661 471.38ZM353.676 467.578C351.986 467.578 350.438 467.156 349.452 466.311C348.044 465.185 346.495 464.481 345.651 464.058C345.51 464.058 345.369 463.917 345.369 463.917C345.369 463.495 346.214 461.946 347.763 461.383C348.466 461.101 349.17 461.101 350.015 461.524C354.239 463.073 354.943 464.34 355.647 465.325C355.788 465.466 355.928 465.748 356.069 465.889L356.21 466.029C356.491 466.452 356.773 466.733 357.055 467.015C356.21 467.297 354.943 467.578 353.676 467.578ZM358.463 470.254C358.181 470.394 357.759 470.394 357.618 470.394C357.618 470.254 357.759 470.113 358.04 469.972C359.307 468.846 359.307 468.564 359.167 467.86C359.167 467.719 359.026 467.437 359.026 467.297C359.026 466.874 359.166 466.874 359.589 466.874C359.87 466.874 360.293 466.874 360.715 467.015C360.856 467.015 361.138 467.156 361.278 467.437C361.701 468.705 360.011 469.69 358.463 470.254ZM375.076 469.831C373.527 471.239 371.697 471.098 370.148 470.676C369.022 470.394 365.502 468.564 361.841 466.311C361.841 466.311 361.701 466.311 361.701 466.17C361.56 466.17 361.56 466.029 361.419 466.029C360.715 465.748 359.87 465.748 359.167 465.889C358.885 465.889 358.463 466.029 358.181 466.311C357.899 466.029 357.618 465.748 357.336 465.466L357.195 465.325C357.055 465.185 356.914 465.044 356.773 464.762C356.069 463.777 355.224 462.369 350.578 460.679C348.889 459.975 347.199 460.256 345.792 461.242C344.947 461.805 344.524 462.509 344.243 462.932C344.243 463.073 344.102 463.073 344.102 463.213C342.835 462.369 340.582 460.538 340.582 458.567C340.582 457.3 341.427 456.314 343.117 455.328C346.495 453.498 350.297 453.216 352.972 453.357C355.224 453.498 357.055 453.92 357.899 454.061C356.069 454.906 355.224 455.751 355.506 456.596C356.069 458.426 361.56 459.271 364.235 459.693C364.657 459.834 365.08 459.834 365.361 459.834C366.347 460.116 367.332 460.116 367.895 460.116C368.036 460.116 368.318 460.116 368.459 460.116C368.036 460.538 367.473 461.242 369.303 462.228C370.148 462.791 373.668 465.325 374.794 466.311C376.624 467.719 376.624 468.564 375.076 469.831ZM373.809 459.552C373.527 459.975 372.823 460.538 371.978 461.101C371.134 461.664 370.43 461.805 370.289 461.805C369.162 461.242 369.444 460.96 369.726 460.679L369.866 460.538C369.866 460.538 370.007 460.538 370.148 460.538C371.415 460.397 372.682 459.693 374.231 458.426C374.231 458.567 374.231 458.989 373.809 459.552Z" fill="white"/>
<ellipse cx="356.086" cy="392.257" rx="4.27013" ry="4.26511" fill="white"/>
<ellipse cx="390.517" cy="117.29" rx="4.27013" ry="4.26511" fill="white"/>
<defs>
<filter id="filter0_d_119_9" x="0.903809" y="119.818" width="464.543" height="288.516" filterUnits="userSpaceOnUse" color-interpolation-filters="sRGB">
<feFlood flood-opacity="0" result="BackgroundImageFix"/>
<feColorMatrix in="SourceAlpha" type="matrix" values="0 0 0 0 0 0 0 0 0 0 0 0 0 0 0 0 0 0 127 0" result="hardAlpha"/>
<feOffset dy="4"/>
<feGaussianBlur stdDeviation="10"/>
<feComposite in2="hardAlpha" operator="out"/>
<feColorMatrix type="matrix" values="0 0 0 0 0.701961 0 0 0 0 0.807843 0 0 0 0 0.972549 0 0 0 0.25 0"/>
<feBlend mode="normal" in2="BackgroundImageFix" result="effect1_dropShadow_119_9"/>
<feBlend mode="normal" in="SourceGraphic" in2="effect1_dropShadow_119_9" result="shape"/>
</filter>
<linearGradient id="paint0_linear_119_9" x1="361.159" y1="372.131" x2="361.159" y2="419.047" gradientUnits="userSpaceOnUse">
<stop stop-color="#1EE6F6"/>
<stop offset="1" stop-color="#2776EA"/>
</linearGradient>
<linearGradient id="paint1_linear_119_9" x1="368.549" y1="92.7661" x2="368.549" y2="167.405" gradientUnits="userSpaceOnUse">
<stop stop-color="#1EE6F6"/>
<stop offset="1" stop-color="#2776EA"/>
</linearGradient>
<linearGradient id="paint2_linear_119_9" x1="379.326" y1="526.242" x2="475.099" y2="526.242" gradientUnits="userSpaceOnUse">
<stop stop-color="#E1ECFC"/>
<stop offset="1" stop-color="#B3CFF7"/>
</linearGradient>
<linearGradient id="paint3_linear_119_9" x1="452.098" y1="482.766" x2="547.872" y2="482.766" gradientUnits="userSpaceOnUse">
<stop stop-color="#E1ECFC"/>
<stop offset="1" stop-color="#B3CFF7"/>
</linearGradient>
<linearGradient id="paint4_linear_119_9" x1="476.1" y1="131.958" x2="571.874" y2="131.958" gradientUnits="userSpaceOnUse">
<stop stop-color="#E1ECFC"/>
<stop offset="1" stop-color="#B3CFF7"/>
</linearGradient>
<linearGradient id="paint5_linear_119_9" x1="476.083" y1="48.4103" x2="571.856" y2="48.4103" gradientUnits="userSpaceOnUse">
<stop stop-color="#E1ECFC"/>
<stop offset="1" stop-color="#B3CFF7"/>
</linearGradient>
<linearGradient id="paint6_linear_119_9" x1="598.305" y1="398.327" x2="693.938" y2="398.327" gradientUnits="userSpaceOnUse">
<stop stop-color="#E1ECFC"/>
<stop offset="1" stop-color="#B3CFF7"/>
</linearGradient>
<linearGradient id="paint7_linear_119_9" x1="549.478" y1="90.4662" x2="645.251" y2="90.4662" gradientUnits="userSpaceOnUse">
<stop stop-color="#E1ECFC"/>
<stop offset="1" stop-color="#B3CFF7"/>
</linearGradient>
<linearGradient id="paint8_linear_119_9" x1="524.821" y1="441.246" x2="620.594" y2="441.246" gradientUnits="userSpaceOnUse">
<stop stop-color="#E1ECFC"/>
<stop offset="1" stop-color="#B3CFF7"/>
</linearGradient>
<linearGradient id="paint9_linear_119_9" x1="578.462" y1="434.137" x2="578.722" y2="432.743" gradientUnits="userSpaceOnUse">
<stop stop-color="#909CA9"/>
<stop offset="1" stop-color="#EDEDEE"/>
</linearGradient>
<linearGradient id="paint10_linear_119_9" x1="549.51" y1="417.341" x2="550.095" y2="416.326" gradientUnits="userSpaceOnUse">
<stop stop-color="#939FAB"/>
<stop offset="1" stop-color="#DCDEE1"/>
</linearGradient>
<radialGradient id="paint11_radial_119_9" cx="0" cy="0" r="1" gradientUnits="userSpaceOnUse" gradientTransform="translate(569.352 416.789) rotate(156.926) scale(1.86932 2.8212)">
<stop stop-color="#EE352C"/>
<stop offset="1" stop-color="#A91D22"/>
</radialGradient>
<linearGradient id="paint12_linear_119_9" x1="524.832" y1="357.783" x2="620.605" y2="357.783" gradientUnits="userSpaceOnUse">
<stop stop-color="#E1ECFC"/>
<stop offset="1" stop-color="#B3CFF7"/>
</linearGradient>
<linearGradient id="paint13_linear_119_9" x1="598.327" y1="315.597" x2="693.959" y2="315.597" gradientUnits="userSpaceOnUse">
<stop stop-color="#E1ECFC"/>
<stop offset="1" stop-color="#B3CFF7"/>
</linearGradient>
<linearGradient id="paint14_linear_119_9" x1="402.722" y1="90.406" x2="498.354" y2="90.406" gradientUnits="userSpaceOnUse">
<stop stop-color="#E1ECFC"/>
<stop offset="1" stop-color="#B3CFF7"/>
</linearGradient>
<linearGradient id="paint15_linear_119_9" x1="549.606" y1="174.006" x2="645.238" y2="174.006" gradientUnits="userSpaceOnUse">
<stop stop-color="#E1ECFC"/>
<stop offset="1" stop-color="#B3CFF7"/>
</linearGradient>
<linearGradient id="paint16_linear_119_9" x1="452.039" y1="399.177" x2="547.812" y2="399.177" gradientUnits="userSpaceOnUse">
<stop stop-color="#E1ECFC"/>
<stop offset="1" stop-color="#B3CFF7"/>
</linearGradient>
<linearGradient id="paint17_linear_119_9" x1="378.657" y1="442.011" x2="474.43" y2="442.011" gradientUnits="userSpaceOnUse">
<stop stop-color="#E1ECFC"/>
<stop offset="1" stop-color="#B3CFF7"/>
</linearGradient>
<linearGradient id="paint18_linear_119_9" x1="306.002" y1="483.391" x2="401.634" y2="483.391" gradientUnits="userSpaceOnUse">
<stop stop-color="#E1ECFC"/>
<stop offset="1" stop-color="#B3CFF7"/>
</linearGradient>
</defs>
</svg>
